<svg xmlns="http://www.w3.org/2000/svg" xmlns:xlink="http://www.w3.org/1999/xlink" width="40" zoomAndPan="magnify" viewBox="0 0 375 374.999991" height="40" preserveAspectRatio="xMidYMid meet" version="1.0"><defs><g/><clipPath id="e37d88ce6b"><path d="M 66 105 L 88 105 L 88 123.667969 L 66 123.667969 Z M 66 105 " clip-rule="nonzero"/></clipPath><clipPath id="21dfd27dea"><path d="M 72 86.167969 L 94 86.167969 L 94 104 L 72 104 Z M 72 86.167969 " clip-rule="nonzero"/></clipPath><clipPath id="978559ed79"><path d="M 77 92 L 98.667969 92 L 98.667969 110 L 77 110 Z M 77 92 " clip-rule="nonzero"/></clipPath><clipPath id="076d0395c5"><path d="M 61.167969 100 L 83 100 L 83 118 L 61.167969 118 Z M 61.167969 100 " clip-rule="nonzero"/></clipPath><clipPath id="26fd733607"><path d="M 62 86.167969 L 76 86.167969 L 76 111 L 62 111 Z M 62 86.167969 " clip-rule="nonzero"/></clipPath></defs><g fill="#000000" fill-opacity="1"><g transform="translate(-0.432849, 213.242965)"><g><path d="M 9.03125 -6.03125 C 4.46875 -11.007812 2.1875 -17.109375 2.1875 -24.328125 C 2.1875 -31.546875 4.46875 -37.65625 9.03125 -42.65625 C 13.59375 -47.664062 19.390625 -50.171875 26.421875 -50.171875 C 32.878906 -50.171875 38.195312 -48.144531 42.375 -44.09375 L 42.375 -48.75 L 59.1875 -48.75 L 59.1875 0 L 42.5625 0 L 42.5625 -5.515625 L 42.375 -5.515625 C 38.195312 -0.890625 32.878906 1.421875 26.421875 1.421875 C 19.390625 1.421875 13.59375 -1.0625 9.03125 -6.03125 Z M 23.328125 -32.59375 C 21.140625 -30.4375 20.046875 -27.675781 20.046875 -24.3125 C 20.046875 -20.957031 21.085938 -18.21875 23.171875 -16.09375 C 25.265625 -13.976562 28.023438 -12.921875 31.453125 -12.921875 C 34.742188 -12.921875 37.445312 -14 39.5625 -16.15625 C 41.6875 -18.3125 42.75 -21.035156 42.75 -24.328125 C 42.75 -27.679688 41.65625 -30.4375 39.46875 -32.59375 C 37.289062 -34.75 34.617188 -35.828125 31.453125 -35.828125 C 28.222656 -35.828125 25.515625 -34.75 23.328125 -32.59375 Z M 23.328125 -32.59375 "/></g></g></g><g fill="#000000" fill-opacity="1"><g transform="translate(55.515156, 213.242965)"><g><path d="M 5.703125 0 L 5.703125 -81.71875 L 22.515625 -81.71875 L 22.515625 0 Z M 5.703125 0 "/></g></g></g><g fill="#000000" fill-opacity="1"><g transform="translate(74.796032, 213.242965)"><g><path d="M 55.859375 -42.65625 C 60.421875 -37.65625 62.703125 -31.546875 62.703125 -24.328125 C 62.703125 -17.109375 60.421875 -11.007812 55.859375 -6.03125 C 51.304688 -1.0625 45.515625 1.421875 38.484375 1.421875 C 32.023438 1.421875 26.703125 -0.890625 22.515625 -5.515625 L 22.328125 -5.515625 L 22.328125 0 L 5.703125 0 L 5.703125 -81.71875 L 22.515625 -81.71875 L 22.515625 -44.09375 C 26.703125 -48.144531 32.023438 -50.171875 38.484375 -50.171875 C 45.515625 -50.171875 51.304688 -47.664062 55.859375 -42.65625 Z M 41.703125 -16.09375 C 43.796875 -18.21875 44.84375 -20.957031 44.84375 -24.3125 C 44.84375 -27.675781 43.75 -30.4375 41.5625 -32.59375 C 39.382812 -34.75 36.679688 -35.828125 33.453125 -35.828125 C 30.273438 -35.828125 27.59375 -34.75 25.40625 -32.59375 C 23.226562 -30.4375 22.140625 -27.679688 22.140625 -24.328125 C 22.140625 -21.035156 23.195312 -18.3125 25.3125 -16.15625 C 27.4375 -14 30.148438 -12.921875 33.453125 -12.921875 C 36.867188 -12.921875 39.617188 -13.976562 41.703125 -16.09375 Z M 41.703125 -16.09375 "/></g></g></g><g fill="#000000" fill-opacity="1"><g transform="translate(130.744037, 213.242965)"><g><path d="M 21.5625 -48.75 L 21.5625 -25.5625 C 21.5625 -20.75 22.289062 -17.328125 23.75 -15.296875 C 25.207031 -13.265625 27.675781 -12.25 31.15625 -12.25 C 34.644531 -12.25 37.117188 -13.265625 38.578125 -15.296875 C 40.035156 -17.328125 40.765625 -20.75 40.765625 -25.5625 L 40.765625 -48.75 L 57.578125 -48.75 L 57.578125 -21.46875 C 57.578125 -13.363281 55.46875 -7.519531 51.25 -3.9375 C 47.039062 -0.363281 40.34375 1.421875 31.15625 1.421875 C 21.976562 1.421875 15.28125 -0.363281 11.0625 -3.9375 C 6.851562 -7.519531 4.75 -13.363281 4.75 -21.46875 L 4.75 -48.75 Z M 21.5625 -48.75 "/></g></g></g><g fill="#970c10" fill-opacity="1"><g transform="translate(185.059129, 213.242965)"><g><path d="M 5.703125 0 L 5.703125 -48.75 L 22.515625 -48.75 L 22.515625 -43.609375 L 22.703125 -43.609375 C 27.078125 -47.984375 31.734375 -50.171875 36.671875 -50.171875 C 40.222656 -50.171875 43.550781 -49.441406 46.65625 -47.984375 C 49.757812 -46.523438 52.101562 -44.273438 53.6875 -41.234375 C 58.625 -47.191406 64.007812 -50.171875 69.84375 -50.171875 C 75.03125 -50.171875 79.492188 -48.710938 83.234375 -45.796875 C 86.972656 -42.878906 88.84375 -38.316406 88.84375 -32.109375 L 88.84375 0 L 72.015625 0 L 72.015625 -27.546875 C 72.015625 -30.148438 71.300781 -32.320312 69.875 -34.0625 C 68.457031 -35.800781 66.320312 -36.671875 63.46875 -36.671875 C 61 -36.671875 59.113281 -35.925781 57.8125 -34.4375 C 56.519531 -32.945312 55.804688 -31.160156 55.671875 -29.078125 L 55.671875 0 L 38.859375 0 L 38.859375 -27.546875 C 38.859375 -30.148438 38.144531 -32.320312 36.71875 -34.0625 C 35.289062 -35.800781 33.15625 -36.671875 30.3125 -36.671875 C 27.71875 -36.671875 25.769531 -35.863281 24.46875 -34.25 C 23.164062 -32.632812 22.515625 -30.71875 22.515625 -28.5 L 22.515625 0 Z M 5.703125 0 "/></g></g></g><g fill="#970c10" fill-opacity="1"><g transform="translate(269.694871, 213.242965)"><g><path d="M 7.3125 -75.90625 C 9.28125 -77.875 11.625 -78.859375 14.34375 -78.859375 C 17.070312 -78.859375 19.414062 -77.875 21.375 -75.90625 C 23.34375 -73.945312 24.328125 -71.601562 24.328125 -68.875 C 24.328125 -66.15625 23.34375 -63.8125 21.375 -61.84375 C 19.414062 -59.882812 17.070312 -58.90625 14.34375 -58.90625 C 11.625 -58.90625 9.28125 -59.882812 7.3125 -61.84375 C 5.351562 -63.8125 4.375 -66.15625 4.375 -68.875 C 4.375 -71.601562 5.351562 -73.945312 7.3125 -75.90625 Z M 5.703125 -48.75 L 5.703125 0 L 22.515625 0 L 22.515625 -48.75 Z M 5.703125 -48.75 "/></g></g></g><g fill="#970c10" fill-opacity="1"><g transform="translate(289.450725, 213.242965)"><g><path d="M 5.703125 0 L 5.703125 -48.75 L 22.515625 -48.75 L 22.515625 -43.609375 L 22.703125 -43.609375 C 27.078125 -47.984375 31.734375 -50.171875 36.671875 -50.171875 C 39.078125 -50.171875 41.46875 -49.851562 43.84375 -49.21875 C 46.21875 -48.582031 48.5 -47.597656 50.6875 -46.265625 C 52.875 -44.941406 54.644531 -43.0625 56 -40.625 C 57.363281 -38.1875 58.046875 -35.347656 58.046875 -32.109375 L 58.046875 0 L 41.234375 0 L 41.234375 -27.546875 C 41.234375 -30.085938 40.425781 -32.304688 38.8125 -34.203125 C 37.195312 -36.109375 35.09375 -37.0625 32.5 -37.0625 C 29.957031 -37.0625 27.65625 -36.078125 25.59375 -34.109375 C 23.539062 -32.148438 22.515625 -29.960938 22.515625 -27.546875 L 22.515625 0 Z M 5.703125 0 "/></g></g></g><g fill="#970c10" fill-opacity="1"><g transform="translate(343.308891, 213.242965)"><g><path d="M 16.53125 -20.328125 C 19.570312 -20.328125 22.148438 -19.265625 24.265625 -17.140625 C 26.390625 -15.023438 27.453125 -12.445312 27.453125 -9.40625 C 27.453125 -6.425781 26.390625 -3.875 24.265625 -1.75 C 22.148438 0.363281 19.570312 1.421875 16.53125 1.421875 C 13.550781 1.421875 11 0.363281 8.875 -1.75 C 6.757812 -3.875 5.703125 -6.425781 5.703125 -9.40625 C 5.703125 -12.445312 6.757812 -15.023438 8.875 -17.140625 C 11 -19.265625 13.550781 -20.328125 16.53125 -20.328125 Z M 16.53125 -20.328125 "/></g></g></g><g clip-path="url(#e37d88ce6b)"><path fill="#970c10" d="M 87.050781 113.367188 C 87.347656 110.242188 87.300781 107.304688 87.246094 105.859375 L 83.875 111.695312 L 83.878906 111.703125 C 83.878906 111.703125 83.871094 111.707031 83.863281 111.710938 L 83.851562 111.734375 L 83.832031 111.734375 C 83.417969 112.007812 80.210938 114.105469 76.410156 115.84375 C 74.023438 116.9375 71.867188 117.675781 70.007812 118.039062 C 68.804688 118.277344 67.722656 118.355469 66.765625 118.277344 C 70.148438 121.609375 74.792969 123.664062 79.917969 123.664062 C 81.324219 123.664062 82.695312 123.507812 84.011719 123.214844 C 84.707031 122.398438 85.296875 121.28125 85.78125 119.875 C 86.378906 118.125 86.808594 115.9375 87.050781 113.367188 Z M 87.050781 113.367188 " fill-opacity="1" fill-rule="nonzero"/></g><g clip-path="url(#21dfd27dea)"><path fill="#970c10" d="M 75.980469 98.097656 L 76 98.097656 C 76.414062 97.820312 79.621094 95.722656 83.421875 93.984375 C 85.808594 92.894531 87.964844 92.15625 89.824219 91.789062 C 91.027344 91.554688 92.109375 91.476562 93.066406 91.550781 C 89.683594 88.21875 85.039062 86.164062 79.914062 86.164062 C 78.507812 86.164062 77.136719 86.320312 75.820312 86.613281 C 75.125 87.433594 74.535156 88.550781 74.050781 89.957031 C 73.453125 91.703125 73.023438 93.894531 72.78125 96.460938 C 72.484375 99.585938 72.53125 102.523438 72.585938 103.972656 L 75.957031 98.132812 L 75.953125 98.128906 C 75.953125 98.125 75.960938 98.121094 75.96875 98.117188 Z M 75.980469 98.097656 " fill-opacity="1" fill-rule="nonzero"/></g><g clip-path="url(#978559ed79)"><path fill="#970c10" d="M 89.941406 92.359375 C 88.125 92.714844 86.015625 93.4375 83.671875 94.507812 C 80.816406 95.8125 78.296875 97.324219 77.070312 98.097656 L 83.808594 98.097656 L 83.8125 98.089844 C 83.816406 98.089844 83.820312 98.09375 83.832031 98.097656 L 83.851562 98.097656 L 83.863281 98.113281 C 84.308594 98.335938 87.730469 100.0625 91.136719 102.488281 C 93.273438 104.007812 94.992188 105.503906 96.238281 106.933594 C 97.046875 107.859375 97.65625 108.761719 98.070312 109.628906 C 98.460938 108.125 98.667969 106.542969 98.667969 104.914062 C 98.667969 100.015625 96.789062 95.554688 93.710938 92.214844 C 92.65625 92.027344 91.394531 92.074219 89.941406 92.359375 Z M 89.941406 92.359375 " fill-opacity="1" fill-rule="nonzero"/></g><path fill="#970c10" d="M 95.804688 107.316406 C 94.585938 105.921875 92.90625 104.457031 90.804688 102.960938 C 88.246094 101.140625 85.679688 99.71875 84.398438 99.039062 L 87.765625 104.878906 L 87.777344 104.875 C 87.777344 104.878906 87.777344 104.882812 87.777344 104.894531 L 87.789062 104.914062 L 87.777344 104.929688 C 87.808594 105.429688 88.023438 109.257812 87.628906 113.414062 C 87.378906 116.03125 86.941406 118.265625 86.328125 120.058594 C 85.929688 121.21875 85.457031 122.199219 84.910156 122.992188 C 91.046875 121.300781 95.921875 116.570312 97.8125 110.519531 C 97.453125 109.507812 96.78125 108.4375 95.804688 107.316406 Z M 95.804688 107.316406 " fill-opacity="1" fill-rule="nonzero"/><g clip-path="url(#076d0395c5)"><path fill="#970c10" d="M 69.890625 117.472656 C 71.707031 117.117188 73.816406 116.390625 76.164062 115.320312 C 79.019531 114.015625 81.535156 112.503906 82.761719 111.730469 L 76.023438 111.730469 L 76.019531 111.738281 C 76.019531 111.738281 76.011719 111.738281 76.003906 111.730469 L 75.980469 111.730469 L 75.96875 111.714844 C 75.523438 111.492188 72.101562 109.765625 68.699219 107.34375 C 66.558594 105.820312 64.839844 104.324219 63.59375 102.894531 C 62.789062 101.96875 62.175781 101.070312 61.765625 100.199219 C 61.375 101.707031 61.167969 103.285156 61.167969 104.914062 C 61.167969 109.8125 63.046875 114.273438 66.121094 117.613281 C 67.175781 117.804688 68.4375 117.757812 69.890625 117.472656 Z M 69.890625 117.472656 " fill-opacity="1" fill-rule="nonzero"/></g><g clip-path="url(#26fd733607)"><path fill="#970c10" d="M 64.027344 102.511719 C 65.242188 103.90625 66.925781 105.371094 69.027344 106.867188 C 71.585938 108.6875 74.152344 110.113281 75.433594 110.789062 L 72.066406 104.953125 L 72.054688 104.953125 C 72.054688 104.953125 72.054688 104.945312 72.054688 104.9375 L 72.042969 104.914062 L 72.050781 104.898438 C 72.023438 104.402344 71.808594 100.574219 72.203125 96.414062 C 72.453125 93.800781 72.890625 91.566406 73.503906 89.769531 C 73.902344 88.609375 74.375 87.628906 74.921875 86.839844 C 68.785156 88.53125 63.910156 93.261719 62.019531 99.3125 C 62.378906 100.320312 63.050781 101.394531 64.027344 102.511719 Z M 64.027344 102.511719 " fill-opacity="1" fill-rule="nonzero"/></g></svg>