<svg xmlns="http://www.w3.org/2000/svg" xmlns:xlink="http://www.w3.org/1999/xlink" width="500" zoomAndPan="magnify" viewBox="0 0 375 374.999991" height="500" preserveAspectRatio="xMidYMid meet" version="1.0"><defs><g/><clipPath id="65367a61ae"><path d="M 174 114 L 195 114 L 195 132.414062 L 174 132.414062 Z M 174 114 " clip-rule="nonzero"/></clipPath><clipPath id="82fbadcd41"><path d="M 180 94.914062 L 201 94.914062 L 201 113 L 180 113 Z M 180 94.914062 " clip-rule="nonzero"/></clipPath><clipPath id="cc7696a7f0"><path d="M 184 100 L 206.152344 100 L 206.152344 119 L 184 119 Z M 184 100 " clip-rule="nonzero"/></clipPath><clipPath id="05610c4c41"><path d="M 168.652344 108 L 191 108 L 191 127 L 168.652344 127 Z M 168.652344 108 " clip-rule="nonzero"/></clipPath></defs><g fill="#0c0c0c" fill-opacity="1"><g transform="translate(11.851997, 208.806852)"><g><path d="M 15.691406 0 C 14.964844 -3.03125 14.503906 -12.988281 14.832031 -23.929688 L 36.851562 -23.929688 C 38.960938 -16.679688 41.203125 -9.097656 43.972656 0 L 54.058594 0 C 47.265625 -22.480469 43.179688 -35.796875 36.523438 -57.75 C 35.136719 -62.296875 32.5 -66.582031 27.6875 -66.582031 C 22.875 -66.582031 20.238281 -62.296875 18.855469 -57.75 C 12.195312 -35.796875 8.175781 -22.480469 1.320312 0 Z M 14.898438 -24.917969 C 15.492188 -41.597656 17.867188 -60.1875 23.796875 -60.1875 C 25.25 -60.1875 25.972656 -59.199219 26.433594 -57.75 C 30.457031 -45.09375 33.421875 -35.269531 36.523438 -24.917969 Z M 14.898438 -24.917969 "/></g></g></g><g fill="#0c0c0c" fill-opacity="1"><g transform="translate(67.223455, 208.806852)"><g><path d="M 4.613281 0 L 44.167969 0 L 44.167969 -10.8125 C 39.6875 -6.195312 25.710938 -1.054688 14.171875 -0.988281 L 14.171875 -65.921875 L 4.613281 -65.921875 Z M 4.613281 0 "/></g></g></g><g fill="#0c0c0c" fill-opacity="1"><g transform="translate(113.9596, 208.806852)"><g><path d="M 3.296875 -65.921875 L 3.296875 0 L 33.226562 0 C 42.71875 0 51.355469 -6.855469 51.355469 -16.347656 C 51.355469 -37.90625 23.796875 -34.476562 23.796875 -41.863281 C 23.796875 -45.882812 47.398438 -45.554688 47.398438 -58.671875 C 47.398438 -64.078125 42.519531 -65.921875 37.511719 -65.921875 Z M 12.855469 -9.230469 L 12.855469 -64.933594 L 24.390625 -64.933594 C 31.773438 -64.933594 37.578125 -63.617188 37.578125 -57.417969 C 37.578125 -43.640625 16.941406 -45.488281 16.941406 -36.984375 C 16.941406 -22.941406 50.367188 -29.863281 50.367188 -16.941406 C 50.367188 -11.207031 44.628906 -9.230469 36.984375 -9.230469 Z M 12.855469 -9.230469 "/></g></g></g><g fill="#0c0c0c" fill-opacity="1"><g transform="translate(166.628416, 208.806852)"><g><path d="M 4.613281 -14.503906 C 4.613281 -6.460938 10.152344 0.660156 20.632812 0.660156 C 41.597656 0.660156 51.15625 -23.929688 51.15625 -39.816406 L 51.15625 -65.921875 L 41.597656 -65.921875 L 41.664062 -14.570312 C 41.664062 -7.910156 32.632812 -7.910156 23.863281 -7.910156 C 11.933594 -7.910156 5.800781 -10.085938 5.800781 -18.0625 C 5.800781 -25.84375 10.480469 -50.167969 18.328125 -65.921875 L 4.613281 -65.921875 Z M 4.613281 -14.503906 "/></g></g></g><g fill="#0c0c0c" fill-opacity="1"><g transform="translate(221.736204, 208.806852)"><g><path d="M 21.886719 0 L 21.886719 -0.328125 C 7.25 -5.667969 9.625 -32.960938 11.273438 -44.761719 C 12.589844 -54.1875 12.589844 -54.125 13.910156 -63.285156 C 16.28125 -61.375 16.679688 -58.144531 17.402344 -52.871094 C 18.128906 -46.410156 18.65625 -42.257812 19.710938 -34.875 C 20.964844 -27.488281 22.148438 -0.921875 36.71875 -0.921875 C 43.507812 -0.921875 44.234375 -5.867188 44.234375 -8.832031 C 44.234375 -18.394531 37.972656 -40.808594 37.972656 -50.894531 C 37.972656 -55.640625 38.761719 -62.363281 43.640625 -62.363281 C 48.191406 -62.363281 48.125 -55.113281 48.914062 -49.3125 C 51.488281 -30.523438 53.070312 -19.25 55.707031 0 L 65.59375 0 C 62.957031 -19.25 61.574219 -30.457031 58.804688 -49.375 C 57.617188 -57.550781 57.289062 -66.582031 48.519531 -66.582031 C 40.9375 -66.582031 36.390625 -60.78125 36.785156 -50.828125 C 37.179688 -41.398438 40.015625 -29.601562 41.003906 -23.402344 C 42.519531 -13.710938 44.628906 -5.539062 39.355469 -5.539062 C 35.335938 -5.539062 32.566406 -15.03125 31.511719 -21.820312 C 29.402344 -35.597656 28.347656 -44.167969 26.171875 -59.464844 C 25.578125 -63.617188 23.402344 -65.921875 20.304688 -65.921875 L 6.066406 -65.921875 L 6.066406 -65.59375 C 7.382812 -65.460938 8.503906 -65.332031 9.492188 -65.132812 C 14.109375 -63.484375 12.261719 -58.804688 11.601562 -54.847656 L 1.320312 0 Z M 21.886719 0 "/></g></g></g><g fill="#0c0c0c" fill-opacity="1"><g transform="translate(288.64338, 208.806852)"><g><path d="M 4.613281 0 L 14.171875 0 L 14.171875 -65.921875 L 4.613281 -65.921875 Z M 4.613281 0 "/></g></g></g><g fill="#0c0c0c" fill-opacity="1"><g transform="translate(307.430124, 208.806852)"><g><path d="M 4.613281 0 L 18.328125 0 C 9.953125 -15.03125 5.800781 -32.433594 5.800781 -57.617188 C 5.800781 -57.617188 7.449219 -58.804688 11.140625 -51.75 C 13.054688 -48.058594 16.808594 -40.214844 23.140625 -28.148438 C 31.246094 -12.722656 40.015625 0.660156 48.125 0.660156 C 49.046875 0.660156 50.367188 0.394531 51.089844 0 L 51.089844 -65.921875 L 37.378906 -65.921875 C 45.75 -50.894531 49.902344 -33.488281 49.902344 -8.832031 C 49.902344 -8.832031 48.71875 -7.449219 45.15625 -11.273438 C 42.324219 -14.371094 37.972656 -20.765625 31.378906 -32.960938 C 18.984375 -55.902344 17.402344 -66.582031 7.582031 -66.582031 C 6.660156 -66.582031 5.339844 -66.320312 4.613281 -65.921875 Z M 4.613281 0 "/></g></g></g><g clip-path="url(#65367a61ae)"><path fill="#970c10" d="M 194.539062 122.113281 C 194.835938 118.988281 194.785156 116.054688 194.730469 114.605469 L 191.359375 120.441406 L 191.363281 120.449219 C 191.363281 120.449219 191.359375 120.453125 191.351562 120.460938 L 191.339844 120.480469 L 191.320312 120.480469 C 190.90625 120.753906 187.695312 122.855469 183.898438 124.589844 C 181.507812 125.683594 179.351562 126.421875 177.492188 126.785156 C 176.292969 127.023438 175.207031 127.101562 174.25 127.023438 C 177.636719 130.355469 182.277344 132.410156 187.402344 132.410156 C 188.808594 132.410156 190.179688 132.253906 191.5 131.960938 C 192.191406 131.144531 192.785156 130.027344 193.265625 128.621094 C 193.863281 126.871094 194.292969 124.683594 194.539062 122.113281 Z M 194.539062 122.113281 " fill-opacity="1" fill-rule="nonzero"/></g><g clip-path="url(#82fbadcd41)"><path fill="#970c10" d="M 183.464844 106.84375 L 183.484375 106.84375 C 183.898438 106.570312 187.109375 104.46875 190.90625 102.730469 C 193.296875 101.640625 195.449219 100.902344 197.3125 100.535156 C 198.511719 100.300781 199.597656 100.222656 200.554688 100.296875 C 197.167969 96.964844 192.527344 94.910156 187.402344 94.910156 C 185.996094 94.910156 184.625 95.066406 183.304688 95.359375 C 182.609375 96.179688 182.019531 97.296875 181.539062 98.703125 C 180.9375 100.449219 180.511719 102.640625 180.265625 105.207031 C 179.96875 108.332031 180.019531 111.269531 180.074219 112.71875 L 183.445312 106.882812 L 183.4375 106.875 C 183.441406 106.871094 183.445312 106.871094 183.453125 106.863281 Z M 183.464844 106.84375 " fill-opacity="1" fill-rule="nonzero"/></g><g clip-path="url(#cc7696a7f0)"><path fill="#970c10" d="M 197.425781 101.105469 C 195.613281 101.460938 193.503906 102.183594 191.15625 103.253906 C 188.300781 104.558594 185.78125 106.070312 184.554688 106.84375 L 191.296875 106.84375 L 191.300781 106.835938 C 191.300781 106.835938 191.308594 106.839844 191.316406 106.84375 L 191.339844 106.84375 L 191.347656 106.859375 C 191.792969 107.082031 195.21875 108.8125 198.621094 111.234375 C 200.761719 112.753906 202.476562 114.253906 203.722656 115.679688 C 204.53125 116.605469 205.140625 117.507812 205.554688 118.375 C 205.945312 116.871094 206.152344 115.289062 206.152344 113.660156 C 206.152344 108.761719 204.273438 104.300781 201.195312 100.960938 C 200.144531 100.773438 198.882812 100.820312 197.425781 101.105469 Z M 197.425781 101.105469 " fill-opacity="1" fill-rule="nonzero"/></g><path fill="#970c10" d="M 203.289062 116.0625 C 202.074219 114.667969 200.390625 113.203125 198.289062 111.707031 C 195.734375 109.886719 193.164062 108.464844 191.882812 107.785156 L 195.253906 113.625 L 195.261719 113.625 C 195.261719 113.625 195.261719 113.628906 195.261719 113.640625 L 195.273438 113.660156 L 195.265625 113.675781 C 195.296875 114.175781 195.511719 118.003906 195.113281 122.160156 C 194.867188 124.777344 194.429688 127.011719 193.8125 128.804688 C 193.417969 129.96875 192.941406 130.945312 192.394531 131.738281 C 198.53125 130.046875 203.40625 125.316406 205.300781 119.265625 C 204.9375 118.253906 204.265625 117.183594 203.289062 116.0625 Z M 203.289062 116.0625 " fill-opacity="1" fill-rule="nonzero"/><g clip-path="url(#05610c4c41)"><path fill="#970c10" d="M 177.378906 126.21875 C 179.191406 125.863281 181.300781 125.136719 183.648438 124.066406 C 186.503906 122.761719 189.023438 121.25 190.25 120.476562 L 183.507812 120.476562 L 183.503906 120.488281 C 183.503906 120.484375 183.5 120.484375 183.488281 120.476562 L 183.464844 120.476562 L 183.457031 120.460938 C 183.011719 120.242188 179.589844 118.511719 176.183594 116.089844 C 174.042969 114.566406 172.328125 113.070312 171.082031 111.640625 C 170.273438 110.714844 169.664062 109.816406 169.25 108.945312 C 168.859375 110.453125 168.652344 112.03125 168.652344 113.660156 C 168.652344 118.558594 170.53125 123.019531 173.609375 126.359375 C 174.664062 126.550781 175.921875 126.503906 177.378906 126.21875 Z M 177.378906 126.21875 " fill-opacity="1" fill-rule="nonzero"/></g><path fill="#970c10" d="M 171.515625 111.257812 C 172.730469 112.652344 174.410156 114.117188 176.515625 115.613281 C 179.070312 117.433594 181.640625 118.859375 182.921875 119.535156 L 179.550781 113.699219 L 179.542969 113.699219 C 179.542969 113.699219 179.542969 113.691406 179.539062 113.683594 L 179.53125 113.660156 L 179.539062 113.644531 C 179.507812 113.148438 179.292969 109.320312 179.691406 105.160156 C 179.9375 102.546875 180.375 100.3125 180.988281 98.519531 C 181.386719 97.355469 181.863281 96.375 182.410156 95.585938 C 176.273438 97.277344 171.394531 102.007812 169.503906 108.058594 C 169.867188 109.070312 170.539062 110.140625 171.515625 111.257812 Z M 171.515625 111.257812 " fill-opacity="1" fill-rule="nonzero"/></svg>