<svg xmlns="http://www.w3.org/2000/svg" xmlns:xlink="http://www.w3.org/1999/xlink" width="500" zoomAndPan="magnify" viewBox="0 0 375 374.999991" height="500" preserveAspectRatio="xMidYMid meet" version="1.0"><defs><g/><clipPath id="6f57010aa6"><path d="M 28 150 L 43 150 L 43 162.847656 L 28 162.847656 Z M 28 150 " clip-rule="nonzero"/></clipPath><clipPath id="8aadd86ec2"><path d="M 32 136.597656 L 47 136.597656 L 47 150 L 32 150 Z M 32 136.597656 " clip-rule="nonzero"/></clipPath><clipPath id="245087a9ef"><path d="M 35 140 L 50.644531 140 L 50.644531 154 L 35 154 Z M 35 140 " clip-rule="nonzero"/></clipPath><clipPath id="fb2fc2e7fc"><path d="M 40 145 L 50.644531 145 L 50.644531 162.847656 L 40 162.847656 Z M 40 145 " clip-rule="nonzero"/></clipPath><clipPath id="84e19aed22"><path d="M 24.394531 146 L 40 146 L 40 159 L 24.394531 159 Z M 24.394531 146 " clip-rule="nonzero"/></clipPath><clipPath id="b607512479"><path d="M 24.394531 137 L 35 137 L 35 154 L 24.394531 154 Z M 24.394531 137 " clip-rule="nonzero"/></clipPath></defs><g fill="#0c0c0c" fill-opacity="1"><g transform="translate(11.851997, 235.669623)"><g><path d="M 15.691406 0 C 14.964844 -3.03125 14.503906 -12.988281 14.832031 -23.929688 L 36.851562 -23.929688 C 38.960938 -16.679688 41.203125 -9.097656 43.972656 0 L 54.058594 0 C 47.265625 -22.480469 43.179688 -35.796875 36.523438 -57.75 C 35.136719 -62.296875 32.5 -66.582031 27.6875 -66.582031 C 22.875 -66.582031 20.238281 -62.296875 18.855469 -57.75 C 12.195312 -35.796875 8.175781 -22.480469 1.320312 0 Z M 14.898438 -24.917969 C 15.492188 -41.597656 17.867188 -60.1875 23.796875 -60.1875 C 25.25 -60.1875 25.972656 -59.199219 26.433594 -57.75 C 30.457031 -45.09375 33.421875 -35.269531 36.523438 -24.917969 Z M 14.898438 -24.917969 "/></g></g></g><g fill="#0c0c0c" fill-opacity="1"><g transform="translate(67.223455, 235.669623)"><g><path d="M 4.613281 0 L 44.167969 0 L 44.167969 -10.8125 C 39.6875 -6.195312 25.710938 -1.054688 14.171875 -0.988281 L 14.171875 -65.921875 L 4.613281 -65.921875 Z M 4.613281 0 "/></g></g></g><g fill="#0c0c0c" fill-opacity="1"><g transform="translate(113.9596, 235.669623)"><g><path d="M 3.296875 -65.921875 L 3.296875 0 L 33.226562 0 C 42.71875 0 51.355469 -6.855469 51.355469 -16.347656 C 51.355469 -37.90625 23.796875 -34.476562 23.796875 -41.863281 C 23.796875 -45.882812 47.398438 -45.554688 47.398438 -58.671875 C 47.398438 -64.078125 42.519531 -65.921875 37.511719 -65.921875 Z M 12.855469 -9.230469 L 12.855469 -64.933594 L 24.390625 -64.933594 C 31.773438 -64.933594 37.578125 -63.617188 37.578125 -57.417969 C 37.578125 -43.640625 16.941406 -45.488281 16.941406 -36.984375 C 16.941406 -22.941406 50.367188 -29.863281 50.367188 -16.941406 C 50.367188 -11.207031 44.628906 -9.230469 36.984375 -9.230469 Z M 12.855469 -9.230469 "/></g></g></g><g fill="#0c0c0c" fill-opacity="1"><g transform="translate(166.628416, 235.669623)"><g><path d="M 4.613281 -14.503906 C 4.613281 -6.460938 10.152344 0.660156 20.632812 0.660156 C 41.597656 0.660156 51.15625 -23.929688 51.15625 -39.816406 L 51.15625 -65.921875 L 41.597656 -65.921875 L 41.664062 -14.570312 C 41.664062 -7.910156 32.632812 -7.910156 23.863281 -7.910156 C 11.933594 -7.910156 5.800781 -10.085938 5.800781 -18.0625 C 5.800781 -25.84375 10.480469 -50.167969 18.328125 -65.921875 L 4.613281 -65.921875 Z M 4.613281 -14.503906 "/></g></g></g><g fill="#0c0c0c" fill-opacity="1"><g transform="translate(221.736204, 235.669623)"><g><path d="M 21.886719 0 L 21.886719 -0.328125 C 7.25 -5.667969 9.625 -32.960938 11.273438 -44.761719 C 12.589844 -54.1875 12.589844 -54.125 13.910156 -63.285156 C 16.28125 -61.375 16.679688 -58.144531 17.402344 -52.871094 C 18.128906 -46.410156 18.65625 -42.257812 19.710938 -34.875 C 20.964844 -27.488281 22.148438 -0.921875 36.71875 -0.921875 C 43.507812 -0.921875 44.234375 -5.867188 44.234375 -8.832031 C 44.234375 -18.394531 37.972656 -40.808594 37.972656 -50.894531 C 37.972656 -55.640625 38.761719 -62.363281 43.640625 -62.363281 C 48.191406 -62.363281 48.125 -55.113281 48.914062 -49.3125 C 51.488281 -30.523438 53.070312 -19.25 55.707031 0 L 65.59375 0 C 62.957031 -19.25 61.574219 -30.457031 58.804688 -49.375 C 57.617188 -57.550781 57.289062 -66.582031 48.519531 -66.582031 C 40.9375 -66.582031 36.390625 -60.78125 36.785156 -50.828125 C 37.179688 -41.398438 40.015625 -29.601562 41.003906 -23.402344 C 42.519531 -13.710938 44.628906 -5.539062 39.355469 -5.539062 C 35.335938 -5.539062 32.566406 -15.03125 31.511719 -21.820312 C 29.402344 -35.597656 28.347656 -44.167969 26.171875 -59.464844 C 25.578125 -63.617188 23.402344 -65.921875 20.304688 -65.921875 L 6.066406 -65.921875 L 6.066406 -65.59375 C 7.382812 -65.460938 8.503906 -65.332031 9.492188 -65.132812 C 14.109375 -63.484375 12.261719 -58.804688 11.601562 -54.847656 L 1.320312 0 Z M 21.886719 0 "/></g></g></g><g fill="#0c0c0c" fill-opacity="1"><g transform="translate(288.64338, 235.669623)"><g><path d="M 4.613281 0 L 14.171875 0 L 14.171875 -65.921875 L 4.613281 -65.921875 Z M 4.613281 0 "/></g></g></g><g fill="#0c0c0c" fill-opacity="1"><g transform="translate(307.430124, 235.669623)"><g><path d="M 4.613281 0 L 18.328125 0 C 9.953125 -15.03125 5.800781 -32.433594 5.800781 -57.617188 C 5.800781 -57.617188 7.449219 -58.804688 11.140625 -51.75 C 13.054688 -48.058594 16.808594 -40.214844 23.140625 -28.148438 C 31.246094 -12.722656 40.015625 0.660156 48.125 0.660156 C 49.046875 0.660156 50.367188 0.394531 51.089844 0 L 51.089844 -65.921875 L 37.378906 -65.921875 C 45.75 -50.894531 49.902344 -33.488281 49.902344 -8.832031 C 49.902344 -8.832031 48.71875 -7.449219 45.15625 -11.273438 C 42.324219 -14.371094 37.972656 -20.765625 31.378906 -32.960938 C 18.984375 -55.902344 17.402344 -66.582031 7.582031 -66.582031 C 6.660156 -66.582031 5.339844 -66.320312 4.613281 -65.921875 Z M 4.613281 0 "/></g></g></g><g clip-path="url(#6f57010aa6)"><path fill="#970c10" d="M 42.511719 155.640625 C 42.71875 153.453125 42.683594 151.394531 42.648438 150.382812 L 40.289062 154.46875 L 40.292969 154.472656 C 40.289062 154.472656 40.285156 154.476562 40.28125 154.480469 L 40.273438 154.496094 L 40.261719 154.496094 C 39.96875 154.6875 37.722656 156.15625 35.0625 157.371094 C 33.390625 158.136719 31.882812 158.65625 30.582031 158.910156 C 29.738281 159.074219 28.980469 159.128906 28.3125 159.078125 C 30.679688 161.410156 33.929688 162.847656 37.515625 162.847656 C 38.503906 162.847656 39.460938 162.738281 40.386719 162.53125 C 40.871094 161.960938 41.285156 161.175781 41.621094 160.195312 C 42.042969 158.96875 42.339844 157.4375 42.511719 155.640625 Z M 42.511719 155.640625 " fill-opacity="1" fill-rule="nonzero"/></g><g clip-path="url(#8aadd86ec2)"><path fill="#970c10" d="M 34.761719 144.949219 L 34.773438 144.949219 C 35.066406 144.757812 37.3125 143.289062 39.972656 142.070312 C 41.644531 141.308594 43.152344 140.789062 44.453125 140.535156 C 45.292969 140.371094 46.054688 140.316406 46.722656 140.367188 C 44.355469 138.035156 41.105469 136.597656 37.515625 136.597656 C 36.53125 136.597656 35.570312 136.707031 34.648438 136.910156 C 34.164062 137.484375 33.75 138.265625 33.414062 139.25 C 32.992188 140.476562 32.695312 142.007812 32.523438 143.804688 C 32.3125 145.992188 32.347656 148.046875 32.386719 149.0625 L 34.746094 144.976562 L 34.742188 144.972656 C 34.742188 144.96875 34.746094 144.96875 34.753906 144.964844 Z M 34.761719 144.949219 " fill-opacity="1" fill-rule="nonzero"/></g><g clip-path="url(#245087a9ef)"><path fill="#970c10" d="M 44.535156 140.933594 C 43.265625 141.179688 41.789062 141.6875 40.144531 142.4375 C 38.148438 143.351562 36.382812 144.410156 35.523438 144.949219 L 40.242188 144.949219 L 40.246094 144.945312 C 40.246094 144.945312 40.25 144.945312 40.257812 144.949219 L 40.273438 144.949219 L 40.28125 144.960938 C 40.59375 145.117188 42.988281 146.328125 45.371094 148.023438 C 46.867188 149.089844 48.070312 150.136719 48.941406 151.136719 C 49.507812 151.785156 49.933594 152.414062 50.222656 153.023438 C 50.496094 151.96875 50.644531 150.863281 50.644531 149.722656 C 50.644531 146.292969 49.328125 143.171875 47.171875 140.832031 C 46.4375 140.699219 45.554688 140.734375 44.535156 140.933594 Z M 44.535156 140.933594 " fill-opacity="1" fill-rule="nonzero"/></g><g clip-path="url(#fb2fc2e7fc)"><path fill="#970c10" d="M 48.636719 151.402344 C 47.789062 150.429688 46.609375 149.402344 45.140625 148.355469 C 43.347656 147.082031 41.550781 146.082031 40.652344 145.609375 L 43.011719 149.695312 L 43.019531 149.695312 C 43.019531 149.695312 43.019531 149.699219 43.019531 149.707031 L 43.027344 149.722656 L 43.019531 149.734375 C 43.042969 150.082031 43.191406 152.761719 42.914062 155.671875 C 42.742188 157.503906 42.433594 159.066406 42.003906 160.324219 C 41.726562 161.136719 41.394531 161.820312 41.011719 162.375 C 45.308594 161.191406 48.722656 157.878906 50.046875 153.644531 C 49.792969 152.9375 49.320312 152.1875 48.636719 151.402344 Z M 48.636719 151.402344 " fill-opacity="1" fill-rule="nonzero"/></g><g clip-path="url(#84e19aed22)"><path fill="#970c10" d="M 30.5 158.511719 C 31.769531 158.261719 33.246094 157.757812 34.890625 157.007812 C 36.886719 156.09375 38.652344 155.035156 39.511719 154.496094 L 34.792969 154.496094 L 34.789062 154.5 C 34.789062 154.5 34.785156 154.496094 34.777344 154.496094 L 34.761719 154.496094 L 34.753906 154.484375 C 34.445312 154.328125 32.046875 153.117188 29.664062 151.421875 C 28.167969 150.355469 26.964844 149.308594 26.09375 148.308594 C 25.527344 147.660156 25.101562 147.03125 24.8125 146.421875 C 24.539062 147.476562 24.390625 148.582031 24.390625 149.722656 C 24.390625 153.152344 25.707031 156.273438 27.863281 158.613281 C 28.601562 158.746094 29.484375 158.710938 30.5 158.511719 Z M 30.5 158.511719 " fill-opacity="1" fill-rule="nonzero"/></g><g clip-path="url(#b607512479)"><path fill="#970c10" d="M 26.394531 148.039062 C 27.246094 149.015625 28.425781 150.042969 29.894531 151.089844 C 31.683594 152.363281 33.484375 153.359375 34.378906 153.835938 L 32.023438 149.75 L 32.015625 149.75 C 32.015625 149.75 32.015625 149.742188 32.015625 149.738281 L 32.007812 149.722656 L 32.011719 149.710938 C 31.992188 149.363281 31.839844 146.683594 32.117188 143.773438 C 32.292969 141.941406 32.597656 140.378906 33.027344 139.121094 C 33.308594 138.308594 33.640625 137.625 34.023438 137.070312 C 29.726562 138.253906 26.3125 141.566406 24.988281 145.800781 C 25.242188 146.507812 25.710938 147.257812 26.394531 148.039062 Z M 26.394531 148.039062 " fill-opacity="1" fill-rule="nonzero"/></g></svg>