<svg xmlns="http://www.w3.org/2000/svg" xmlns:xlink="http://www.w3.org/1999/xlink" width="500" zoomAndPan="magnify" viewBox="0 0 375 374.999991" height="500" preserveAspectRatio="xMidYMid meet" version="1.0"><path fill="#0c0c0c" d="M 258.84375 272.015625 C 261.820312 240.769531 261.320312 211.402344 260.773438 196.917969 L 227.070312 255.289062 L 227.117188 255.363281 C 227.105469 255.371094 227.054688 255.40625 226.96875 255.464844 L 226.851562 255.664062 L 226.667969 255.664062 C 222.515625 258.414062 190.429688 279.410156 152.4375 296.777344 C 128.546875 307.699219 107.003906 315.085938 88.398438 318.738281 C 76.382812 321.09375 65.550781 321.886719 55.976562 321.125 C 89.820312 354.433594 136.253906 374.984375 187.492188 374.984375 C 201.566406 374.984375 215.277344 373.429688 228.464844 370.492188 C 235.398438 362.304688 241.308594 351.132812 246.125 337.085938 C 252.117188 319.589844 256.398438 297.695312 258.84375 272.015625 Z M 258.84375 272.015625 " fill-opacity="1" fill-rule="nonzero"/><path fill="#0c0c0c" d="M 148.125 119.308594 L 148.3125 119.308594 C 152.460938 116.558594 184.546875 95.5625 222.542969 78.195312 C 246.429688 67.273438 267.976562 59.886719 286.582031 56.238281 C 298.597656 53.878906 309.425781 53.089844 319 53.851562 C 285.15625 20.539062 238.722656 -0.0117188 187.488281 -0.0117188 C 173.414062 -0.0117188 159.703125 1.542969 146.511719 4.480469 C 139.578125 12.667969 133.667969 23.839844 128.855469 37.886719 C 122.859375 55.382812 118.578125 77.277344 116.132812 102.957031 C 113.15625 134.203125 113.65625 163.570312 114.203125 178.054688 L 147.90625 119.683594 L 147.859375 119.609375 C 147.867188 119.601562 147.921875 119.566406 148.007812 119.507812 Z M 148.125 119.308594 " fill-opacity="1" fill-rule="nonzero"/><path fill="#0c0c0c" d="M 287.742188 61.914062 C 269.59375 65.46875 248.492188 72.707031 225.027344 83.429688 C 196.480469 96.476562 171.296875 111.59375 159.027344 119.3125 L 226.429688 119.3125 L 226.46875 119.230469 C 226.480469 119.238281 226.535156 119.265625 226.628906 119.3125 L 226.863281 119.3125 L 226.953125 119.472656 C 231.410156 121.691406 265.636719 138.980469 299.675781 163.203125 C 321.078125 178.429688 338.25 193.394531 350.710938 207.679688 C 358.78125 216.933594 364.890625 225.9375 369.019531 234.632812 C 372.921875 219.570312 375 203.773438 375 187.488281 C 375 138.496094 356.203125 93.894531 325.4375 60.492188 C 314.894531 58.59375 302.28125 59.0625 287.742188 61.910156 Z M 287.742188 61.914062 " fill-opacity="1" fill-rule="nonzero"/><path fill="#0c0c0c" d="M 346.359375 211.511719 C 334.207031 197.570312 317.386719 182.917969 296.367188 167.957031 C 270.796875 149.757812 245.113281 135.507812 232.292969 128.738281 L 265.996094 187.109375 L 266.085938 187.105469 C 266.085938 187.117188 266.089844 187.179688 266.097656 187.285156 L 266.210938 187.484375 L 266.121094 187.644531 C 266.425781 192.613281 268.566406 230.898438 264.609375 272.488281 C 262.125 298.640625 257.75 320.992188 251.605469 338.929688 C 247.628906 350.542969 242.886719 360.335938 237.421875 368.261719 C 298.785156 351.347656 347.542969 304.027344 366.464844 243.523438 C 362.84375 233.421875 356.121094 222.707031 346.359375 211.511719 Z M 346.359375 211.511719 " fill-opacity="1" fill-rule="nonzero"/><path fill="#0c0c0c" d="M 87.246094 313.054688 C 105.394531 309.5 126.496094 302.257812 149.960938 291.535156 C 178.507812 278.492188 203.691406 263.375 215.960938 255.65625 L 148.558594 255.65625 L 148.519531 255.734375 C 148.507812 255.730469 148.453125 255.703125 148.359375 255.65625 L 148.125 255.65625 L 148.035156 255.496094 C 143.578125 253.277344 109.351562 235.988281 75.3125 211.765625 C 53.910156 196.539062 36.738281 181.574219 24.277344 167.285156 C 16.207031 158.035156 10.097656 149.03125 5.96875 140.335938 C 2.066406 155.398438 -0.0117188 171.195312 -0.0117188 187.476562 C -0.0117188 236.472656 18.785156 281.074219 49.550781 314.476562 C 60.09375 316.375 72.707031 315.90625 87.246094 313.054688 Z M 87.246094 313.054688 " fill-opacity="1" fill-rule="nonzero"/><path fill="#0c0c0c" d="M 28.613281 163.464844 C 40.769531 177.40625 57.589844 192.058594 78.605469 207.019531 C 104.175781 225.21875 129.863281 239.46875 142.679688 246.238281 L 108.976562 187.867188 L 108.890625 187.871094 C 108.886719 187.859375 108.882812 187.796875 108.875 187.691406 L 108.761719 187.492188 L 108.855469 187.332031 C 108.546875 182.363281 106.410156 144.078125 110.363281 102.488281 C 112.851562 76.335938 117.226562 53.984375 123.367188 36.046875 C 127.34375 24.433594 132.085938 14.640625 137.550781 6.714844 C 76.1875 23.628906 27.429688 70.949219 8.507812 131.453125 C 12.128906 141.554688 18.851562 152.269531 28.613281 163.464844 Z M 28.613281 163.464844 " fill-opacity="1" fill-rule="nonzero"/></svg>