<svg xmlns="http://www.w3.org/2000/svg" xmlns:xlink="http://www.w3.org/1999/xlink" width="500" zoomAndPan="magnify" viewBox="0 0 375 374.999991" height="500" preserveAspectRatio="xMidYMid meet" version="1.0"><defs><g/><clipPath id="8ef357f55e"><path d="M 56 131 L 107 131 L 107 162.28125 L 56 162.28125 Z M 56 131 " clip-rule="nonzero"/></clipPath><clipPath id="c9edece4ad"><path d="M 74 123.28125 L 88 123.28125 L 88 137 L 74 137 Z M 74 123.28125 " clip-rule="nonzero"/></clipPath></defs><g fill="#0c0c0c" fill-opacity="1"><g transform="translate(12.949222, 230.618817)"><g><path d="M 36.390625 -47.03125 L 49.125 -47.03125 L 49.125 0 L 36.390625 0 L 36.390625 -5.28125 C 33.785156 -1.882812 29.84375 -0.1875 24.5625 -0.1875 C 18.132812 -0.125 12.613281 -2.367188 8 -6.921875 C 3.394531 -11.460938 1.0625 -16.976562 1 -23.46875 C 0.9375 -29.90625 3.179688 -35.425781 7.734375 -40.03125 C 12.285156 -44.644531 17.804688 -46.976562 24.296875 -47.03125 C 29.628906 -47.03125 33.660156 -45.304688 36.390625 -41.859375 Z M 32.578125 -15.46875 C 34.816406 -17.707031 35.9375 -20.4375 35.9375 -23.65625 C 35.9375 -26.925781 34.785156 -29.65625 32.484375 -31.84375 C 30.179688 -34.144531 27.484375 -35.238281 24.390625 -35.125 C 21.171875 -35.125 18.4375 -34 16.1875 -31.75 C 13.945312 -29.507812 12.828125 -26.78125 12.828125 -23.5625 C 12.828125 -20.40625 13.976562 -17.675781 16.28125 -15.375 C 18.53125 -13.132812 21.257812 -12.015625 24.46875 -12.015625 C 27.75 -12.128906 30.453125 -13.28125 32.578125 -15.46875 Z M 32.578125 -15.46875 "/></g></g></g><g fill="#0c0c0c" fill-opacity="1"><g transform="translate(64.810364, 230.618817)"><g><path d="M 15.46875 -63.234375 L 15.46875 0 L 2.734375 0 L 2.734375 -63.234375 Z M 15.46875 -63.234375 "/></g></g></g><g fill="#0c0c0c" fill-opacity="1"><g transform="translate(83.007258, 230.618817)"><g><path d="M 30.65625 -46.859375 C 37.144531 -46.796875 42.664062 -44.457031 47.21875 -39.84375 C 51.769531 -35.238281 54.015625 -29.722656 53.953125 -23.296875 C 53.890625 -16.804688 51.554688 -11.285156 46.953125 -6.734375 C 42.335938 -2.179688 36.816406 0.0625 30.390625 0 C 24.867188 0 19.925781 -1.789062 15.5625 -5.375 L 15.5625 0 L 2.828125 0 L 2.734375 -63.5 L 15.46875 -63.5 L 15.46875 -41.3125 C 19.832031 -45.007812 24.894531 -46.859375 30.65625 -46.859375 Z M 38.671875 -15.1875 C 40.847656 -17.375 42 -20.109375 42.125 -23.390625 C 42.125 -26.472656 41.003906 -29.203125 38.765625 -31.578125 C 36.515625 -33.816406 33.785156 -34.9375 30.578125 -34.9375 C 27.421875 -34.9375 24.6875 -33.84375 22.375 -31.65625 C 20.132812 -29.414062 19.015625 -26.6875 19.015625 -23.46875 C 18.890625 -20.320312 19.984375 -17.59375 22.296875 -15.28125 C 24.472656 -13.101562 27.203125 -11.953125 30.484375 -11.828125 C 33.691406 -11.828125 36.421875 -12.945312 38.671875 -15.1875 Z M 38.671875 -15.1875 "/></g></g></g><g fill="#0c0c0c" fill-opacity="1"><g transform="translate(138.416788, 230.618817)"><g><path d="M 2.734375 -47.03125 L 14.5625 -47.03125 L 14.5625 -23.390625 C 14.5625 -22.472656 14.710938 -21.441406 15.015625 -20.296875 C 15.378906 -18.898438 15.925781 -17.625 16.65625 -16.46875 C 18.65625 -13.4375 21.503906 -11.921875 25.203125 -11.921875 C 29.265625 -11.921875 32.207031 -13.46875 34.03125 -16.5625 C 34.695312 -17.65625 35.179688 -18.925781 35.484375 -20.375 C 35.722656 -21.40625 35.84375 -22.4375 35.84375 -23.46875 L 35.84375 -47.03125 L 48.578125 -47.03125 L 48.578125 0 L 35.84375 0 L 35.84375 -4.90625 C 32.875 -1.632812 29.054688 0 24.390625 0 C 18.378906 0.0625 13.28125 -2.085938 9.09375 -6.453125 C 4.851562 -10.765625 2.734375 -16.101562 2.734375 -22.46875 Z M 2.734375 -47.03125 "/></g></g></g><g fill="#0c0c0c" fill-opacity="1"><g transform="translate(189.732024, 230.618817)"><g><path d="M 60.046875 -46.953125 C 66.359375 -47.003906 71.484375 -45.125 75.421875 -41.3125 C 79.671875 -37.300781 81.796875 -31.6875 81.796875 -24.46875 L 81.796875 0 L 69.96875 0 L 69.96875 -23.65625 C 69.96875 -24.5625 69.816406 -25.59375 69.515625 -26.75 C 69.085938 -28.144531 68.507812 -29.390625 67.78125 -30.484375 C 65.84375 -33.578125 62.992188 -35.125 59.234375 -35.125 C 55.222656 -35.125 52.3125 -33.578125 50.5 -30.484375 C 49.832031 -29.328125 49.347656 -28.019531 49.046875 -26.5625 C 48.796875 -25.53125 48.671875 -24.5 48.671875 -23.46875 L 48.671875 0 L 36.75 0 L 36.75 -23.65625 C 36.75 -24.5625 36.597656 -25.59375 36.296875 -26.75 C 35.929688 -28.144531 35.390625 -29.390625 34.671875 -30.484375 C 32.660156 -33.578125 29.804688 -35.125 26.109375 -35.125 C 22.046875 -35.125 19.101562 -33.578125 17.28125 -30.484375 C 16.613281 -29.328125 16.128906 -28.019531 15.828125 -26.5625 C 15.585938 -25.53125 15.46875 -24.5 15.46875 -23.46875 L 15.46875 0 L 2.734375 0 L 2.734375 -47.03125 L 15.46875 -47.03125 L 15.46875 -42.125 C 18.4375 -45.34375 22.257812 -46.953125 26.9375 -46.953125 C 33.789062 -47.066406 39.335938 -44.425781 43.578125 -39.03125 L 47.40625 -42.578125 C 50.976562 -45.492188 55.191406 -46.953125 60.046875 -46.953125 Z M 60.046875 -46.953125 "/></g></g></g><g fill="#0c0c0c" fill-opacity="1"><g transform="translate(274.256593, 230.618817)"><g><path d="M 15.375 -63.421875 L 15.375 -52.6875 L 2.734375 -52.6875 L 2.734375 -63.421875 Z M 15.46875 -46.765625 L 15.46875 0 L 2.734375 0 L 2.734375 -46.765625 Z M 15.46875 -46.765625 "/></g></g></g><g fill="#0c0c0c" fill-opacity="1"><g transform="translate(292.453476, 230.618817)"><g><path d="M 26.015625 -46.671875 C 32.691406 -47.222656 38.210938 -45.492188 42.578125 -41.484375 C 47.253906 -37.179688 49.59375 -31.148438 49.59375 -23.390625 L 49.59375 0 L 37.765625 0 L 37.765625 -23.109375 L 37.671875 -23.109375 L 37.671875 -23.296875 C 37.671875 -26.503906 36.546875 -29.234375 34.296875 -31.484375 C 32.054688 -33.722656 29.328125 -34.84375 26.109375 -34.84375 C 22.835938 -34.726562 20.109375 -33.578125 17.921875 -31.390625 C 15.617188 -29.085938 14.53125 -26.359375 14.65625 -23.203125 L 14.65625 -23.109375 L 14.5625 -23.109375 L 14.5625 0 L 1.8125 0 L 1.8125 -47.03125 L 14.5625 -47.03125 L 14.5625 -40.9375 C 17.40625 -44.332031 21.222656 -46.242188 26.015625 -46.671875 Z M 26.015625 -46.671875 "/></g></g></g><g fill="#e4e325" fill-opacity="1"><g transform="translate(343.851544, 230.618817)"><g><path d="M 15.46875 0 L 2.734375 0 L 2.734375 -12.734375 L 15.46875 -12.734375 Z M 15.46875 0 "/></g></g></g><g clip-path="url(#8ef357f55e)"><path fill="#1d8b02" d="M 106.152344 131.464844 C 104.566406 131.628906 103.003906 131.925781 101.46875 132.359375 C 99.933594 132.792969 98.445312 133.351562 97.003906 134.039062 C 95.566406 134.726562 94.191406 135.53125 92.890625 136.453125 C 91.585938 137.375 90.371094 138.402344 89.242188 139.535156 C 88.113281 140.664062 87.085938 141.882812 86.167969 143.191406 C 85.246094 144.496094 84.441406 145.875 83.753906 147.316406 C 83.066406 148.761719 82.507812 150.253906 82.074219 151.796875 C 81.644531 153.335938 81.34375 154.902344 81.179688 156.496094 C 81.011719 154.902344 80.714844 153.335938 80.28125 151.796875 C 79.847656 150.253906 79.289062 148.761719 78.601562 147.316406 C 77.914062 145.875 77.109375 144.496094 76.191406 143.191406 C 75.269531 141.882812 74.242188 140.664062 73.117188 139.535156 C 71.988281 138.402344 70.769531 137.375 69.46875 136.453125 C 68.164062 135.53125 66.792969 134.726562 65.351562 134.039062 C 63.910156 133.351562 62.421875 132.792969 60.886719 132.359375 C 59.351562 131.925781 57.789062 131.628906 56.203125 131.464844 C 56.109375 132.378906 56.058594 133.296875 56.054688 134.21875 C 56.050781 135.136719 56.09375 136.054688 56.179688 136.972656 C 56.265625 137.886719 56.394531 138.796875 56.570312 139.699219 C 56.746094 140.601562 56.964844 141.496094 57.226562 142.375 C 57.488281 143.257812 57.792969 144.125 58.140625 144.976562 C 58.488281 145.828125 58.875 146.660156 59.304688 147.472656 C 59.730469 148.285156 60.199219 149.074219 60.703125 149.84375 C 61.210938 150.609375 61.753906 151.351562 62.332031 152.0625 C 62.910156 152.777344 63.519531 153.460938 64.167969 154.113281 C 64.8125 154.765625 65.488281 155.386719 66.195312 155.972656 C 66.898438 156.5625 67.632812 157.113281 68.390625 157.625 C 69.152344 158.140625 69.9375 158.617188 70.742188 159.054688 C 71.546875 159.492188 72.375 159.886719 73.21875 160.242188 C 74.066406 160.597656 74.925781 160.914062 75.800781 161.183594 C 76.675781 161.453125 77.566406 161.679688 78.464844 161.863281 C 79.359375 162.046875 80.265625 162.1875 81.179688 162.28125 C 82.089844 162.1875 82.996094 162.046875 83.894531 161.863281 C 84.792969 161.679688 85.679688 161.453125 86.554688 161.183594 C 87.429688 160.914062 88.292969 160.597656 89.136719 160.242188 C 89.980469 159.886719 90.808594 159.492188 91.613281 159.054688 C 92.421875 158.617188 93.203125 158.140625 93.964844 157.625 C 94.722656 157.113281 95.457031 156.5625 96.164062 155.972656 C 96.867188 155.386719 97.542969 154.765625 98.191406 154.113281 C 98.835938 153.460938 99.445312 152.777344 100.023438 152.0625 C 100.601562 151.351562 101.144531 150.609375 101.652344 149.84375 C 102.15625 149.074219 102.625 148.285156 103.054688 147.472656 C 103.480469 146.660156 103.871094 145.828125 104.214844 144.976562 C 104.5625 144.125 104.867188 143.257812 105.128906 142.375 C 105.394531 141.496094 105.613281 140.601562 105.785156 139.699219 C 105.960938 138.796875 106.089844 137.886719 106.175781 136.972656 C 106.261719 136.054688 106.304688 135.136719 106.300781 134.21875 C 106.296875 133.296875 106.246094 132.378906 106.152344 131.464844 Z M 106.152344 131.464844 " fill-opacity="1" fill-rule="nonzero"/></g><g clip-path="url(#c9edece4ad)"><path fill="#e4e325" d="M 87.476562 129.828125 C 87.476562 130.257812 87.433594 130.683594 87.347656 131.105469 C 87.261719 131.527344 87.136719 131.933594 86.96875 132.332031 C 86.804688 132.730469 86.597656 133.105469 86.355469 133.464844 C 86.113281 133.820312 85.835938 134.152344 85.527344 134.457031 C 85.21875 134.761719 84.882812 135.03125 84.519531 135.269531 C 84.15625 135.507812 83.773438 135.710938 83.371094 135.875 C 82.964844 136.039062 82.550781 136.164062 82.121094 136.246094 C 81.691406 136.332031 81.261719 136.375 80.824219 136.375 C 80.386719 136.375 79.953125 136.332031 79.523438 136.246094 C 79.097656 136.164062 78.679688 136.039062 78.277344 135.875 C 77.875 135.710938 77.488281 135.507812 77.125 135.269531 C 76.761719 135.03125 76.425781 134.761719 76.117188 134.457031 C 75.808594 134.152344 75.535156 133.820312 75.289062 133.464844 C 75.046875 133.105469 74.84375 132.730469 74.675781 132.332031 C 74.507812 131.933594 74.382812 131.527344 74.296875 131.105469 C 74.210938 130.683594 74.167969 130.257812 74.167969 129.828125 C 74.167969 129.398438 74.210938 128.972656 74.296875 128.550781 C 74.382812 128.128906 74.507812 127.71875 74.675781 127.324219 C 74.84375 126.925781 75.046875 126.546875 75.289062 126.191406 C 75.535156 125.832031 75.808594 125.503906 76.117188 125.199219 C 76.425781 124.894531 76.761719 124.625 77.125 124.382812 C 77.488281 124.144531 77.875 123.945312 78.277344 123.78125 C 78.679688 123.617188 79.097656 123.492188 79.523438 123.40625 C 79.953125 123.324219 80.386719 123.28125 80.824219 123.28125 C 81.261719 123.28125 81.691406 123.324219 82.121094 123.40625 C 82.550781 123.492188 82.964844 123.617188 83.371094 123.78125 C 83.773438 123.945312 84.15625 124.144531 84.519531 124.382812 C 84.882812 124.625 85.21875 124.894531 85.527344 125.199219 C 85.835938 125.503906 86.113281 125.832031 86.355469 126.191406 C 86.597656 126.546875 86.804688 126.925781 86.96875 127.324219 C 87.136719 127.71875 87.261719 128.128906 87.347656 128.550781 C 87.433594 128.972656 87.476562 129.398438 87.476562 129.828125 Z M 87.476562 129.828125 " fill-opacity="1" fill-rule="nonzero"/></g></svg>