<svg xmlns="http://www.w3.org/2000/svg" xmlns:xlink="http://www.w3.org/1999/xlink" width="500" zoomAndPan="magnify" viewBox="0 0 375 374.999991" height="500" preserveAspectRatio="xMidYMid meet" version="1.0"><defs><g/><clipPath id="b2e31636f9"><path d="M 25.875 131.191406 L 49.125 131.191406 L 49.125 154.441406 L 25.875 154.441406 Z M 25.875 131.191406 " clip-rule="nonzero"/></clipPath><clipPath id="6a86522929"><path d="M 37.5 131.191406 C 31.078125 131.191406 25.875 136.398438 25.875 142.816406 C 25.875 149.238281 31.078125 154.441406 37.5 154.441406 C 43.921875 154.441406 49.125 149.238281 49.125 142.816406 C 49.125 136.398438 43.921875 131.191406 37.5 131.191406 " clip-rule="nonzero"/></clipPath></defs><g clip-path="url(#b2e31636f9)"><g clip-path="url(#6a86522929)"><path fill="#d83c3c" d="M 25.875 131.191406 L 49.125 131.191406 L 49.125 154.441406 L 25.875 154.441406 Z M 25.875 131.191406 " fill-opacity="1" fill-rule="nonzero"/></g></g><g fill="#0c0c0c" fill-opacity="1"><g transform="translate(11.73655, 225.964133)"><g><path d="M 15.703125 0 C 14.976562 -3.035156 14.515625 -12.996094 14.84375 -23.949219 L 36.878906 -23.949219 C 38.988281 -16.691406 41.234375 -9.105469 44.003906 0 L 54.097656 0 C 47.304688 -22.496094 43.210938 -35.824219 36.550781 -57.792969 C 35.164062 -62.34375 32.523438 -66.632812 27.707031 -66.632812 C 22.894531 -66.632812 20.253906 -62.34375 18.867188 -57.792969 C 12.203125 -35.824219 8.179688 -22.496094 1.320312 0 Z M 14.910156 -24.9375 C 15.503906 -41.628906 17.878906 -60.234375 23.816406 -60.234375 C 25.269531 -60.234375 25.992188 -59.242188 26.457031 -57.792969 C 30.480469 -45.125 33.449219 -35.296875 36.550781 -24.9375 Z M 14.910156 -24.9375 "/></g></g></g><g fill="#0c0c0c" fill-opacity="1"><g transform="translate(67.146357, 225.964133)"><g><path d="M 4.617188 0 L 44.203125 0 L 44.203125 -10.820312 C 39.714844 -6.203125 25.730469 -1.054688 14.183594 -0.988281 L 14.183594 -65.972656 L 4.617188 -65.972656 Z M 4.617188 0 "/></g></g></g><g fill="#0c0c0c" fill-opacity="1"><g transform="translate(113.914874, 225.964133)"><g><path d="M 3.296875 -65.972656 L 3.296875 0 L 33.25 0 C 42.75 0 51.394531 -6.859375 51.394531 -16.363281 C 51.394531 -37.933594 23.816406 -34.503906 23.816406 -41.894531 C 23.816406 -45.917969 47.433594 -45.585938 47.433594 -58.714844 C 47.433594 -64.125 42.550781 -65.972656 37.539062 -65.972656 Z M 12.863281 -9.234375 L 12.863281 -64.984375 L 24.410156 -64.984375 C 31.800781 -64.984375 37.605469 -63.664062 37.605469 -57.460938 C 37.605469 -43.675781 16.957031 -45.519531 16.957031 -37.011719 C 16.957031 -22.957031 50.402344 -29.886719 50.402344 -16.957031 C 50.402344 -11.214844 44.664062 -9.234375 37.011719 -9.234375 Z M 12.863281 -9.234375 "/></g></g></g><g fill="#0c0c0c" fill-opacity="1"><g transform="translate(166.620159, 225.964133)"><g><path d="M 4.617188 -14.515625 C 4.617188 -6.464844 10.160156 0.660156 20.648438 0.660156 C 41.628906 0.660156 51.195312 -23.949219 51.195312 -39.847656 L 51.195312 -65.972656 L 41.628906 -65.972656 L 41.695312 -14.578125 C 41.695312 -7.917969 32.65625 -7.917969 23.882812 -7.917969 C 11.941406 -7.917969 5.804688 -10.09375 5.804688 -18.078125 C 5.804688 -25.863281 10.488281 -50.207031 18.339844 -65.972656 L 4.617188 -65.972656 Z M 4.617188 -14.515625 "/></g></g></g><g fill="#0c0c0c" fill-opacity="1"><g transform="translate(221.766128, 225.964133)"><g><path d="M 21.902344 0 L 21.902344 -0.328125 C 7.257812 -5.671875 9.632812 -32.988281 11.28125 -44.796875 C 12.601562 -54.230469 12.601562 -54.164062 13.921875 -63.335938 C 16.296875 -61.421875 16.691406 -58.1875 17.417969 -52.910156 C 18.144531 -46.445312 18.671875 -42.289062 19.726562 -34.898438 C 20.980469 -27.511719 22.167969 -0.921875 36.746094 -0.921875 C 43.542969 -0.921875 44.269531 -5.871094 44.269531 -8.839844 C 44.269531 -18.40625 38 -40.835938 38 -50.929688 C 38 -55.679688 38.792969 -62.410156 43.675781 -62.410156 C 48.226562 -62.410156 48.160156 -55.152344 48.953125 -49.347656 C 51.523438 -30.546875 53.109375 -19.265625 55.746094 0 L 65.644531 0 C 63.003906 -19.265625 61.617188 -30.480469 58.847656 -49.414062 C 57.660156 -57.59375 57.332031 -66.632812 48.554688 -66.632812 C 40.96875 -66.632812 36.417969 -60.828125 36.8125 -50.867188 C 37.207031 -41.429688 40.046875 -29.621094 41.035156 -23.421875 C 42.550781 -13.722656 44.664062 -5.542969 39.386719 -5.542969 C 35.363281 -5.542969 32.589844 -15.042969 31.535156 -21.835938 C 29.425781 -35.625 28.367188 -44.203125 26.191406 -59.507812 C 25.597656 -63.664062 23.421875 -65.972656 20.320312 -65.972656 L 6.070312 -65.972656 L 6.070312 -65.644531 C 7.390625 -65.511719 8.511719 -65.378906 9.5 -65.179688 C 14.117188 -63.53125 12.269531 -58.847656 11.609375 -54.890625 L 1.320312 0 Z M 21.902344 0 "/></g></g></g><g fill="#0c0c0c" fill-opacity="1"><g transform="translate(288.719662, 225.964133)"><g><path d="M 4.617188 0 L 14.183594 0 L 14.183594 -65.972656 L 4.617188 -65.972656 Z M 4.617188 0 "/></g></g></g><g fill="#0c0c0c" fill-opacity="1"><g transform="translate(307.519407, 225.964133)"><g><path d="M 4.617188 0 L 18.339844 0 C 9.960938 -15.042969 5.804688 -32.457031 5.804688 -57.660156 C 5.804688 -57.660156 7.453125 -58.847656 11.148438 -51.789062 C 13.0625 -48.09375 16.824219 -40.242188 23.15625 -28.171875 C 31.269531 -12.734375 40.046875 0.660156 48.160156 0.660156 C 49.085938 0.660156 50.402344 0.394531 51.128906 0 L 51.128906 -65.972656 L 37.40625 -65.972656 C 45.785156 -50.929688 49.941406 -33.515625 49.941406 -8.839844 C 49.941406 -8.839844 48.753906 -7.453125 45.191406 -11.28125 C 42.355469 -14.382812 38 -20.78125 31.402344 -32.988281 C 19 -55.945312 17.417969 -66.632812 7.585938 -66.632812 C 6.664062 -66.632812 5.34375 -66.367188 4.617188 -65.972656 Z M 4.617188 0 "/></g></g></g></svg>