<svg xmlns="http://www.w3.org/2000/svg" xmlns:xlink="http://www.w3.org/1999/xlink" width="500" zoomAndPan="magnify" viewBox="0 0 375 374.999991" height="500" preserveAspectRatio="xMidYMid meet" version="1.0"><defs><g/><clipPath id="c853ec8036"><path d="M 37.5 102 L 60.75 102 L 60.75 125.25 L 37.5 125.25 Z M 37.5 102 " clip-rule="nonzero"/></clipPath><clipPath id="0e1aef3ee5"><path d="M 49.125 102 C 42.703125 102 37.5 107.203125 37.5 113.625 C 37.5 120.046875 42.703125 125.25 49.125 125.25 C 55.546875 125.25 60.75 120.046875 60.75 113.625 C 60.75 107.203125 55.546875 102 49.125 102 " clip-rule="nonzero"/></clipPath></defs><g clip-path="url(#c853ec8036)"><g clip-path="url(#0e1aef3ee5)"><path fill="#844242" d="M 37.5 102 L 60.75 102 L 60.75 125.25 L 37.5 125.25 Z M 37.5 102 " fill-opacity="1" fill-rule="nonzero"/></g></g><g fill="#0c0c0c" fill-opacity="1"><g transform="translate(25.691826, 192.073831)"><g><path d="M 14.453125 0 C 13.785156 -2.792969 13.363281 -11.964844 13.664062 -22.046875 L 33.949219 -22.046875 C 35.894531 -15.367188 37.960938 -8.382812 40.511719 0 L 49.800781 0 C 43.546875 -20.710938 39.78125 -32.980469 33.648438 -53.203125 C 32.371094 -57.394531 29.941406 -61.34375 25.507812 -61.34375 C 21.074219 -61.34375 18.644531 -57.394531 17.371094 -53.203125 C 11.234375 -32.980469 7.53125 -20.710938 1.214844 0 Z M 13.726562 -22.957031 C 14.273438 -38.324219 16.460938 -55.449219 21.925781 -55.449219 C 23.261719 -55.449219 23.929688 -54.539062 24.355469 -53.203125 C 28.058594 -41.542969 30.792969 -32.492188 33.648438 -22.957031 Z M 13.726562 -22.957031 "/></g></g></g><g fill="#0c0c0c" fill-opacity="1"><g transform="translate(76.702203, 192.073831)"><g><path d="M 4.25 0 L 40.691406 0 L 40.691406 -9.960938 C 36.5625 -5.710938 23.6875 -0.972656 13.058594 -0.910156 L 13.058594 -60.734375 L 4.25 -60.734375 Z M 4.25 0 "/></g></g></g><g fill="#0c0c0c" fill-opacity="1"><g transform="translate(119.757391, 192.073831)"><g><path d="M 3.035156 -60.734375 L 3.035156 0 L 30.609375 0 C 39.355469 0 47.3125 -6.316406 47.3125 -15.0625 C 47.3125 -34.921875 21.925781 -31.765625 21.925781 -38.566406 C 21.925781 -42.273438 43.667969 -41.96875 43.667969 -54.054688 C 43.667969 -59.035156 39.175781 -60.734375 34.558594 -60.734375 Z M 11.84375 -8.503906 L 11.84375 -59.824219 L 22.472656 -59.824219 C 29.273438 -59.824219 34.617188 -58.609375 34.617188 -52.898438 C 34.617188 -40.207031 15.609375 -41.90625 15.609375 -34.074219 C 15.609375 -21.136719 46.402344 -27.511719 46.402344 -15.609375 C 46.402344 -10.324219 41.117188 -8.503906 34.074219 -8.503906 Z M 11.84375 -8.503906 "/></g></g></g><g fill="#0c0c0c" fill-opacity="1"><g transform="translate(168.277979, 192.073831)"><g><path d="M 4.25 -13.363281 C 4.25 -5.953125 9.351562 0.605469 19.011719 0.605469 C 38.324219 0.605469 47.128906 -22.046875 47.128906 -36.683594 L 47.128906 -60.734375 L 38.324219 -60.734375 L 38.382812 -13.421875 C 38.382812 -7.289062 30.0625 -7.289062 21.984375 -7.289062 C 10.992188 -7.289062 5.34375 -9.292969 5.34375 -16.640625 C 5.34375 -23.808594 9.65625 -46.21875 16.882812 -60.734375 L 4.25 -60.734375 Z M 4.25 -13.363281 "/></g></g></g><g fill="#0c0c0c" fill-opacity="1"><g transform="translate(219.045466, 192.073831)"><g><path d="M 20.164062 0 L 20.164062 -0.304688 C 6.679688 -5.222656 8.867188 -30.367188 10.386719 -41.238281 C 11.601562 -49.925781 11.601562 -49.863281 12.816406 -58.304688 C 15 -56.542969 15.367188 -53.566406 16.035156 -48.710938 C 16.703125 -42.757812 17.1875 -38.929688 18.160156 -32.128906 C 19.3125 -25.328125 20.40625 -0.851562 33.828125 -0.851562 C 40.085938 -0.851562 40.753906 -5.40625 40.753906 -8.136719 C 40.753906 -16.945312 34.984375 -37.59375 34.984375 -46.886719 C 34.984375 -51.261719 35.710938 -57.457031 40.207031 -57.457031 C 44.398438 -57.457031 44.335938 -50.773438 45.066406 -45.429688 C 47.433594 -28.121094 48.890625 -17.734375 51.320312 0 L 60.429688 0 C 58 -17.734375 56.726562 -28.058594 54.175781 -45.492188 C 53.082031 -53.023438 52.777344 -61.34375 44.699219 -61.34375 C 37.714844 -61.34375 33.527344 -55.996094 33.890625 -46.828125 C 34.253906 -38.140625 36.867188 -27.269531 37.777344 -21.5625 C 39.175781 -12.632812 41.117188 -5.101562 36.257812 -5.101562 C 32.554688 -5.101562 30.003906 -13.847656 29.03125 -20.101562 C 27.085938 -32.796875 26.117188 -40.691406 24.113281 -54.78125 C 23.566406 -58.609375 21.5625 -60.734375 18.707031 -60.734375 L 5.585938 -60.734375 L 5.585938 -60.429688 C 6.800781 -60.308594 7.835938 -60.1875 8.746094 -60.007812 C 12.996094 -58.488281 11.296875 -54.175781 10.6875 -50.53125 L 1.214844 0 Z M 20.164062 0 "/></g></g></g><g fill="#0c0c0c" fill-opacity="1"><g transform="translate(280.68302, 192.073831)"><g><path d="M 4.25 0 L 13.058594 0 L 13.058594 -60.734375 L 4.25 -60.734375 Z M 4.25 0 "/></g></g></g><g fill="#0c0c0c" fill-opacity="1"><g transform="translate(297.990102, 192.073831)"><g><path d="M 4.25 0 L 16.882812 0 C 9.171875 -13.847656 5.34375 -29.882812 5.34375 -53.082031 C 5.34375 -53.082031 6.863281 -54.175781 10.265625 -47.675781 C 12.027344 -44.277344 15.488281 -37.046875 21.316406 -25.933594 C 28.789062 -11.722656 36.867188 0.605469 44.335938 0.605469 C 45.1875 0.605469 46.402344 0.363281 47.070312 0 L 47.070312 -60.734375 L 34.4375 -60.734375 C 42.148438 -46.886719 45.976562 -30.851562 45.976562 -8.136719 C 45.976562 -8.136719 44.882812 -6.863281 41.601562 -10.386719 C 38.992188 -13.238281 34.984375 -19.132812 28.910156 -30.367188 C 17.492188 -51.503906 16.035156 -61.34375 6.984375 -61.34375 C 6.132812 -61.34375 4.917969 -61.097656 4.25 -60.734375 Z M 4.25 0 "/></g></g></g></svg>