<svg xmlns="http://www.w3.org/2000/svg" xmlns:xlink="http://www.w3.org/1999/xlink" width="500" zoomAndPan="magnify" viewBox="0 0 375 374.999991" height="500" preserveAspectRatio="xMidYMid meet" version="1.0"><defs><clipPath id="96fbbe5bcf"><path d="M 10 108 L 365 108 L 365 324.375 L 10 324.375 Z M 10 108 " clip-rule="nonzero"/></clipPath><clipPath id="eb34855d30"><path d="M 138 50.625 L 232 50.625 L 232 143 L 138 143 Z M 138 50.625 " clip-rule="nonzero"/></clipPath></defs><g clip-path="url(#96fbbe5bcf)"><path fill="#1d8b02" d="M 363.550781 108.066406 C 360.761719 108.351562 357.980469 108.699219 355.207031 109.105469 C 352.433594 109.511719 349.671875 109.976562 346.917969 110.5 C 344.164062 111.023438 341.425781 111.605469 338.695312 112.246094 C 335.96875 112.886719 333.253906 113.585938 330.554688 114.34375 C 327.859375 115.101562 325.175781 115.914062 322.511719 116.785156 C 319.847656 117.65625 317.203125 118.582031 314.582031 119.566406 C 311.957031 120.550781 309.355469 121.585938 306.773438 122.683594 C 304.195312 123.777344 301.636719 124.925781 299.105469 126.128906 C 296.574219 127.332031 294.070312 128.589844 291.59375 129.898438 C 289.117188 131.207031 286.667969 132.570312 284.246094 133.984375 C 281.828125 135.398438 279.441406 136.863281 277.082031 138.382812 C 274.726562 139.898438 272.402344 141.460938 270.113281 143.078125 C 267.820312 144.691406 265.566406 146.355469 263.347656 148.066406 C 261.128906 149.78125 258.945312 151.539062 256.800781 153.339844 C 254.65625 155.144531 252.550781 156.996094 250.488281 158.890625 C 248.421875 160.785156 246.398438 162.71875 244.414062 164.699219 C 242.429688 166.679688 240.492188 168.703125 238.59375 170.765625 C 236.695312 172.828125 234.84375 174.933594 233.039062 177.074219 C 231.230469 179.214844 229.46875 181.394531 227.753906 183.613281 C 226.039062 185.828125 224.375 188.082031 222.757812 190.371094 C 221.136719 192.660156 219.570312 194.980469 218.050781 197.335938 C 216.53125 199.691406 215.0625 202.078125 213.644531 204.492188 C 212.226562 206.910156 210.859375 209.359375 209.546875 211.835938 C 208.234375 214.308594 206.972656 216.8125 205.769531 219.34375 C 204.5625 221.871094 203.410156 224.425781 202.3125 227.003906 C 201.214844 229.582031 200.171875 232.183594 199.183594 234.808594 C 198.195312 237.429688 197.265625 240.074219 196.390625 242.734375 C 195.519531 245.398438 194.699219 248.078125 193.941406 250.777344 C 193.179688 253.472656 192.476562 256.1875 191.832031 258.914062 C 191.191406 261.640625 190.605469 264.382812 190.074219 267.132812 C 189.546875 269.886719 189.078125 272.648438 188.667969 275.421875 C 188.261719 278.195312 187.910156 280.972656 187.617188 283.761719 C 187.328125 280.972656 186.976562 278.195312 186.566406 275.421875 C 186.15625 272.648438 185.6875 269.886719 185.160156 267.132812 C 184.632812 264.382812 184.046875 261.640625 183.402344 258.914062 C 182.757812 256.1875 182.054688 253.472656 181.296875 250.777344 C 180.535156 248.078125 179.71875 245.398438 178.84375 242.734375 C 177.96875 240.074219 177.039062 237.429688 176.050781 234.808594 C 175.066406 232.183594 174.023438 229.582031 172.925781 227.003906 C 171.828125 224.425781 170.675781 221.871094 169.46875 219.34375 C 168.261719 216.8125 167 214.308594 165.6875 211.835938 C 164.375 209.359375 163.007812 206.910156 161.59375 204.496094 C 160.175781 202.078125 158.707031 199.691406 157.1875 197.335938 C 155.667969 194.980469 154.097656 192.660156 152.480469 190.371094 C 150.863281 188.082031 149.195312 185.828125 147.480469 183.613281 C 145.765625 181.394531 144.003906 179.214844 142.199219 177.074219 C 140.390625 174.933594 138.539062 172.828125 136.640625 170.765625 C 134.746094 168.703125 132.804688 166.679688 130.824219 164.699219 C 128.839844 162.71875 126.816406 160.785156 124.75 158.890625 C 122.683594 156.996094 120.578125 155.144531 118.433594 153.339844 C 116.289062 151.539062 114.109375 149.78125 111.886719 148.066406 C 109.667969 146.355469 107.414062 144.691406 105.125 143.078125 C 102.832031 141.460938 100.511719 139.898438 98.152344 138.382812 C 95.796875 136.863281 93.40625 135.398438 90.988281 133.984375 C 88.570312 132.570312 86.121094 131.207031 83.640625 129.898438 C 81.164062 128.589844 78.660156 127.332031 76.128906 126.128906 C 73.597656 124.925781 71.042969 123.777344 68.460938 122.683594 C 65.882812 121.585938 63.28125 120.550781 60.65625 119.566406 C 58.03125 118.582031 55.386719 117.65625 52.722656 116.785156 C 50.058594 115.914062 47.378906 115.101562 44.679688 114.34375 C 41.980469 113.585938 39.265625 112.886719 36.539062 112.246094 C 33.8125 111.605469 31.070312 111.023438 28.316406 110.5 C 25.5625 109.976562 22.800781 109.511719 20.027344 109.105469 C 17.253906 108.699219 14.472656 108.351562 11.6875 108.066406 C 11.355469 111.273438 11.105469 114.492188 10.933594 117.710938 C 10.761719 120.933594 10.667969 124.160156 10.652344 127.386719 C 10.640625 130.613281 10.703125 133.835938 10.847656 137.058594 C 10.992188 140.285156 11.214844 143.5 11.519531 146.714844 C 11.820312 149.925781 12.203125 153.128906 12.660156 156.324219 C 13.121094 159.515625 13.660156 162.695312 14.273438 165.863281 C 14.890625 169.03125 15.582031 172.183594 16.351562 175.316406 C 17.125 178.449219 17.96875 181.5625 18.894531 184.652344 C 19.816406 187.746094 20.816406 190.8125 21.886719 193.855469 C 22.960938 196.898438 24.109375 199.910156 25.332031 202.898438 C 26.554688 205.882812 27.847656 208.839844 29.214844 211.761719 C 30.582031 214.683594 32.019531 217.570312 33.527344 220.421875 C 35.035156 223.277344 36.613281 226.089844 38.257812 228.863281 C 39.90625 231.640625 41.621094 234.371094 43.402344 237.0625 C 45.179688 239.753906 47.027344 242.398438 48.9375 245 C 50.847656 247.597656 52.820312 250.148438 54.855469 252.652344 C 56.894531 255.15625 58.988281 257.609375 61.144531 260.007812 C 63.300781 262.410156 65.515625 264.753906 67.789062 267.046875 C 70.058594 269.335938 72.386719 271.570312 74.765625 273.75 C 77.148438 275.925781 79.582031 278.042969 82.066406 280.101562 C 84.550781 282.160156 87.085938 284.15625 89.667969 286.089844 C 92.25 288.023438 94.878906 289.890625 97.554688 291.695312 C 100.230469 293.5 102.945312 295.238281 105.707031 296.910156 C 108.46875 298.582031 111.265625 300.183594 114.105469 301.714844 C 116.945312 303.25 119.820312 304.714844 122.730469 306.105469 C 125.640625 307.5 128.582031 308.820312 131.558594 310.066406 C 134.535156 311.316406 137.539062 312.488281 140.570312 313.589844 C 143.605469 314.691406 146.664062 315.714844 149.746094 316.664062 C 152.828125 317.617188 155.933594 318.492188 159.058594 319.289062 C 162.1875 320.085938 165.332031 320.808594 168.492188 321.449219 C 171.65625 322.09375 174.828125 322.660156 178.019531 323.148438 C 181.207031 323.636719 184.410156 324.042969 187.617188 324.375 C 190.828125 324.042969 194.027344 323.636719 197.214844 323.148438 C 200.40625 322.660156 203.582031 322.09375 206.742188 321.449219 C 209.90625 320.808594 213.050781 320.085938 216.175781 319.289062 C 219.300781 318.492188 222.40625 317.617188 225.488281 316.664062 C 228.574219 315.714844 231.632812 314.691406 234.664062 313.589844 C 237.699219 312.488281 240.703125 311.316406 243.675781 310.066406 C 246.652344 308.820312 249.597656 307.5 252.507812 306.105469 C 255.417969 304.714844 258.292969 303.25 261.128906 301.714844 C 263.96875 300.183594 266.769531 298.582031 269.527344 296.910156 C 272.289062 295.238281 275.007812 293.5 277.679688 291.695312 C 280.355469 289.890625 282.984375 288.023438 285.570312 286.089844 C 288.152344 284.15625 290.683594 282.160156 293.171875 280.101562 C 295.65625 278.042969 298.089844 275.925781 300.46875 273.75 C 302.851562 271.570312 305.175781 269.335938 307.449219 267.046875 C 309.71875 264.753906 311.933594 262.410156 314.089844 260.007812 C 316.246094 257.609375 318.34375 255.15625 320.378906 252.652344 C 322.414062 250.148438 324.386719 247.597656 326.296875 245 C 328.207031 242.398438 330.054688 239.753906 331.835938 237.0625 C 333.617188 234.371094 335.328125 231.640625 336.976562 228.863281 C 338.625 226.089844 340.199219 223.277344 341.710938 220.421875 C 343.21875 217.570312 344.65625 214.683594 346.023438 211.761719 C 347.390625 208.839844 348.683594 205.882812 349.90625 202.898438 C 351.125 199.910156 352.273438 196.898438 353.347656 193.855469 C 354.421875 190.8125 355.417969 187.742188 356.34375 184.652344 C 357.265625 181.5625 358.113281 178.449219 358.882812 175.316406 C 359.652344 172.183594 360.347656 169.03125 360.960938 165.863281 C 361.578125 162.695312 362.117188 159.515625 362.574219 156.324219 C 363.035156 153.128906 363.414062 149.925781 363.71875 146.714844 C 364.019531 143.5 364.242188 140.285156 364.386719 137.058594 C 364.53125 133.835938 364.597656 130.613281 364.582031 127.386719 C 364.570312 124.160156 364.476562 120.933594 364.304688 117.710938 C 364.132812 114.492188 363.878906 111.273438 363.550781 108.066406 Z M 363.550781 108.066406 " fill-opacity="1" fill-rule="nonzero"/></g><g clip-path="url(#eb34855d30)"><path fill="#e4e325" d="M 231.984375 96.574219 C 231.984375 98.078125 231.910156 99.578125 231.757812 101.074219 C 231.609375 102.574219 231.382812 104.058594 231.082031 105.535156 C 230.785156 107.011719 230.410156 108.46875 229.964844 109.910156 C 229.519531 111.351562 229.003906 112.765625 228.417969 114.15625 C 227.828125 115.546875 227.175781 116.90625 226.449219 118.230469 C 225.726562 119.558594 224.9375 120.847656 224.085938 122.097656 C 223.234375 123.351562 222.320312 124.558594 221.347656 125.722656 C 220.371094 126.882812 219.34375 128 218.257812 129.0625 C 217.171875 130.125 216.035156 131.136719 214.847656 132.089844 C 213.664062 133.046875 212.429688 133.941406 211.15625 134.777344 C 209.878906 135.613281 208.5625 136.386719 207.210938 137.09375 C 205.855469 137.804688 204.46875 138.445312 203.050781 139.023438 C 201.632812 139.597656 200.191406 140.105469 198.722656 140.542969 C 197.253906 140.976562 195.765625 141.34375 194.261719 141.636719 C 192.753906 141.929688 191.238281 142.152344 189.710938 142.296875 C 188.183594 142.445312 186.652344 142.519531 185.117188 142.519531 C 183.582031 142.519531 182.050781 142.445312 180.523438 142.296875 C 178.996094 142.152344 177.476562 141.929688 175.972656 141.636719 C 174.46875 141.34375 172.980469 140.976562 171.511719 140.542969 C 170.042969 140.105469 168.597656 139.597656 167.179688 139.023438 C 165.761719 138.445312 164.375 137.804688 163.023438 137.09375 C 161.667969 136.386719 160.355469 135.613281 159.078125 134.777344 C 157.800781 133.941406 156.570312 133.046875 155.382812 132.089844 C 154.195312 131.136719 153.0625 130.125 151.976562 129.0625 C 150.890625 128 149.859375 126.882812 148.886719 125.722656 C 147.914062 124.558594 147 123.351562 146.148438 122.097656 C 145.292969 120.847656 144.507812 119.558594 143.78125 118.230469 C 143.058594 116.90625 142.402344 115.546875 141.816406 114.15625 C 141.230469 112.765625 140.710938 111.351562 140.265625 109.910156 C 139.820312 108.46875 139.449219 107.011719 139.148438 105.535156 C 138.851562 104.058594 138.625 102.574219 138.472656 101.074219 C 138.324219 99.578125 138.25 98.078125 138.25 96.574219 C 138.25 95.066406 138.324219 93.566406 138.472656 92.070312 C 138.625 90.570312 138.851562 89.085938 139.148438 87.609375 C 139.449219 86.132812 139.820312 84.675781 140.265625 83.234375 C 140.710938 81.792969 141.230469 80.378906 141.816406 78.988281 C 142.402344 77.597656 143.058594 76.238281 143.78125 74.914062 C 144.507812 73.585938 145.292969 72.296875 146.148438 71.046875 C 147 69.792969 147.914062 68.585938 148.886719 67.421875 C 149.859375 66.261719 150.890625 65.148438 151.976562 64.082031 C 153.0625 63.019531 154.195312 62.007812 155.382812 61.054688 C 156.570312 60.101562 157.800781 59.203125 159.078125 58.367188 C 160.355469 57.53125 161.667969 56.761719 163.023438 56.050781 C 164.375 55.339844 165.761719 54.699219 167.179688 54.121094 C 168.597656 53.546875 170.042969 53.039062 171.511719 52.601562 C 172.980469 52.167969 174.46875 51.800781 175.972656 51.507812 C 177.476562 51.214844 178.996094 50.992188 180.523438 50.847656 C 182.050781 50.699219 183.582031 50.625 185.117188 50.625 C 186.652344 50.625 188.183594 50.699219 189.710938 50.847656 C 191.238281 50.992188 192.753906 51.214844 194.261719 51.507812 C 195.765625 51.800781 197.253906 52.167969 198.722656 52.601562 C 200.191406 53.039062 201.632812 53.546875 203.050781 54.121094 C 204.46875 54.699219 205.855469 55.339844 207.210938 56.050781 C 208.5625 56.761719 209.878906 57.53125 211.15625 58.367188 C 212.429688 59.203125 213.664062 60.101562 214.847656 61.054688 C 216.035156 62.007812 217.171875 63.019531 218.257812 64.082031 C 219.34375 65.148438 220.371094 66.261719 221.347656 67.421875 C 222.320312 68.585938 223.234375 69.792969 224.085938 71.046875 C 224.9375 72.296875 225.726562 73.585938 226.449219 74.914062 C 227.171875 76.238281 227.828125 77.597656 228.417969 78.988281 C 229.003906 80.378906 229.519531 81.792969 229.964844 83.234375 C 230.410156 84.675781 230.785156 86.132812 231.082031 87.609375 C 231.382812 89.085938 231.609375 90.570312 231.757812 92.070312 C 231.910156 93.566406 231.984375 95.066406 231.984375 96.574219 Z M 231.984375 96.574219 " fill-opacity="1" fill-rule="nonzero"/></g></svg>