<svg width="39" height="39" viewBox="0 0 39 39" fill="none" xmlns="http://www.w3.org/2000/svg">
<path fill-rule="evenodd" clip-rule="evenodd" d="M36.4975 26.2921C40.2701 19.0659 36.6787 10.4942 32.5503 6.3658C25.1607 -1.02379 13.1798 -1.02379 5.79024 6.3658C-1.59935 13.7554 -1.59935 25.7363 5.79024 33.1259C10.0943 37.4299 18.5193 40.8751 25.7192 37.0774C26.459 36.6872 26.8292 36.4919 27.0102 36.4191C27.7742 36.1119 28.176 36.0651 28.9901 36.1887C29.183 36.2179 29.4352 36.2833 29.9396 36.414C31.4528 36.8062 32.2097 37.0024 32.7612 36.9826C34.7444 36.9111 36.3356 35.3199 36.407 33.3368C36.4269 32.7853 36.2307 32.0286 35.8385 30.5154C35.7078 30.011 35.6424 29.7587 35.6132 29.567C35.4892 28.753 35.5338 28.3627 35.8382 27.5976C35.91 27.4174 36.1058 27.0423 36.4975 26.2921ZM13.2247 19.477C13.2247 20.522 12.3776 21.3692 11.3325 21.3692C10.2875 21.3692 9.4403 20.522 9.4403 19.477C9.4403 18.4319 10.2875 17.5847 11.3325 17.5847C12.3776 17.5847 13.2247 18.4319 13.2247 19.477ZM20.7936 19.477C20.7936 20.522 19.9465 21.3692 18.9014 21.3692C17.8564 21.3692 17.0092 20.522 17.0092 19.477C17.0092 18.4319 17.8564 17.5847 18.9014 17.5847C19.9465 17.5847 20.7936 18.4319 20.7936 19.477ZM26.4703 21.3692C27.5153 21.3692 28.3625 20.522 28.3625 19.477C28.3625 18.4319 27.5153 17.5847 26.4703 17.5847C25.4253 17.5847 24.5781 18.4319 24.5781 19.477C24.5781 20.522 25.4253 21.3692 26.4703 21.3692Z" fill="#8E00FE" fill-opacity="0.53"/>
</svg>
