<svg width="30" height="29" viewBox="0 0 30 29" fill="none" xmlns="http://www.w3.org/2000/svg">
<path d="M27.28 2.86199C24.8791 0.357704 21.4279 -0.581403 18.1267 0.357704L14.0752 10.2183L18.2767 11.314C19.027 11.4705 19.6272 12.4096 19.3271 13.1922C19.3271 13.3487 19.3271 13.3487 19.1771 13.5052L16.176 19.7659C16.0259 20.392 15.5758 20.705 14.9756 20.705C14.6754 20.705 14.5254 20.705 14.3753 20.5485C13.6251 20.2355 13.325 19.2964 13.6251 18.5138L15.7258 13.9748L11.6744 12.8791C10.774 12.5661 10.3239 11.7835 10.4739 11.0009C10.4739 10.8444 10.4739 10.8444 10.4739 10.8444L14.2253 1.76637C10.0238 -1.36399 4.17168 0.044668 1.47071 4.58369C-0.930154 8.49664 -0.329939 13.5052 2.82119 16.7921L14.0752 28.5309C14.6754 29.157 15.5758 29.157 16.176 28.5309L27.43 16.7921C30.8813 12.8791 30.8813 6.77494 27.28 2.86199Z" fill="#BA6FF6"/>
</svg>
