<svg width="52" height="52" viewBox="0 0 52 52" fill="none" xmlns="http://www.w3.org/2000/svg">
<path fill-rule="evenodd" clip-rule="evenodd" d="M2.91097 36.4294C-3.25079 26.4586 1.75787 14.1734 7.55107 8.38017C17.5103 -1.57903 33.6573 -1.57903 43.6165 8.38017C53.5757 18.3394 53.5757 34.4864 43.6165 44.4456C37.5766 50.4855 25.5152 55.2706 15.5661 49.0876C15.0151 48.7452 14.7396 48.574 14.5293 48.4903C14.1285 48.3307 13.8208 48.2838 13.3907 48.3168C13.165 48.3341 12.9101 48.4001 12.4004 48.5322C9.19279 49.3636 7.58871 49.7794 6.43327 49.5443C4.42785 49.1361 2.86057 47.5688 2.45245 45.5634C2.2173 44.408 2.63299 42.8042 3.46438 39.5965C3.5965 39.0868 3.66257 38.8319 3.67995 38.6069C3.71319 38.1768 3.66723 37.8726 3.5084 37.4715C3.42533 37.2617 3.25388 36.9843 2.91097 36.4294ZM25.9462 19.0374C27.0025 19.0374 27.8588 19.8937 27.8588 20.95C27.8588 22.0064 27.0025 22.8627 25.9462 22.8627H15.7453C14.689 22.8627 13.8327 22.0064 13.8327 20.95C13.8327 19.8937 14.689 19.0374 15.7453 19.0374L25.9462 19.0374ZM36.147 29.2382C37.2034 29.2382 38.0597 30.0946 38.0597 31.1509C38.0597 32.2072 37.2034 33.0635 36.147 33.0635H15.7453C14.689 33.0635 13.8327 32.2072 13.8327 31.1509C13.8327 30.0946 14.689 29.2382 15.7453 29.2382H36.147Z" fill="#8E00FE"/>
</svg>
