<svg xmlns="http://www.w3.org/2000/svg" xmlns:xlink="http://www.w3.org/1999/xlink" width="500" zoomAndPan="magnify" viewBox="0 0 375 374.999991" height="500" preserveAspectRatio="xMidYMid meet" version="1.0"><defs><clipPath id="b8dff04654"><path d="M 83 192 L 251 192 L 251 337.402344 L 83 337.402344 Z M 83 192 " clip-rule="nonzero"/></clipPath><clipPath id="eef43e23b5"><path d="M 130 31.402344 L 298 31.402344 L 298 177 L 130 177 Z M 130 31.402344 " clip-rule="nonzero"/></clipPath><clipPath id="130c8f43ee"><path d="M 167 79 L 343.5 79 L 343.5 223 L 167 223 Z M 167 79 " clip-rule="nonzero"/></clipPath><clipPath id="3d59e33031"><path d="M 37.5 145 L 214 145 L 214 289 L 37.5 289 Z M 37.5 145 " clip-rule="nonzero"/></clipPath></defs><g clip-path="url(#b8dff04654)"><path fill="#000000" d="M 248.714844 253.367188 C 251.144531 227.871094 250.734375 203.90625 250.289062 192.085938 L 222.789062 239.71875 L 222.828125 239.78125 C 222.820312 239.785156 222.777344 239.8125 222.707031 239.863281 L 222.613281 240.023438 L 222.460938 240.023438 C 219.074219 242.269531 192.890625 259.402344 161.886719 273.574219 C 142.394531 282.484375 124.8125 288.515625 109.632812 291.492188 C 99.828125 293.414062 90.992188 294.0625 83.175781 293.441406 C 110.792969 320.621094 148.683594 337.390625 190.492188 337.390625 C 201.976562 337.390625 213.164062 336.121094 223.925781 333.722656 C 229.585938 327.042969 234.410156 317.925781 238.335938 306.464844 C 243.230469 292.1875 246.722656 274.324219 248.71875 253.367188 Z M 248.714844 253.367188 " fill-opacity="1" fill-rule="nonzero"/></g><g clip-path="url(#eef43e23b5)"><path fill="#000000" d="M 158.371094 128.757812 L 158.523438 128.757812 C 161.90625 126.515625 188.089844 109.382812 219.09375 95.210938 C 238.585938 86.296875 256.167969 80.269531 271.347656 77.292969 C 281.15625 75.367188 289.992188 74.722656 297.804688 75.34375 C 270.1875 48.164062 232.296875 31.394531 190.488281 31.394531 C 179.003906 31.394531 167.816406 32.660156 157.054688 35.058594 C 151.398438 41.742188 146.574219 50.855469 142.644531 62.320312 C 137.753906 76.59375 134.261719 94.460938 132.265625 115.414062 C 129.835938 140.910156 130.246094 164.875 130.691406 176.695312 L 158.191406 129.0625 L 158.152344 129.003906 C 158.160156 128.996094 158.203125 128.96875 158.273438 128.921875 L 158.367188 128.757812 Z M 158.371094 128.757812 " fill-opacity="1" fill-rule="nonzero"/></g><g clip-path="url(#130c8f43ee)"><path fill="#000000" d="M 272.296875 81.921875 C 257.488281 84.824219 240.269531 90.730469 221.121094 99.480469 C 197.828125 110.125 177.277344 122.460938 167.265625 128.761719 L 222.265625 128.761719 L 222.296875 128.695312 C 222.308594 128.699219 222.355469 128.722656 222.429688 128.761719 L 222.621094 128.761719 L 222.695312 128.890625 C 226.332031 130.703125 254.257812 144.8125 282.035156 164.574219 C 299.5 177 313.511719 189.210938 323.679688 200.871094 C 330.265625 208.417969 335.25 215.765625 338.621094 222.863281 C 341.804688 210.570312 343.5 197.679688 343.5 184.394531 C 343.5 144.414062 328.164062 108.019531 303.058594 80.761719 C 294.453125 79.214844 284.164062 79.597656 272.296875 81.921875 Z M 272.296875 81.921875 " fill-opacity="1" fill-rule="nonzero"/></g><path fill="#000000" d="M 320.128906 203.996094 C 310.210938 192.621094 296.488281 180.664062 279.335938 168.457031 C 258.46875 153.605469 237.511719 141.976562 227.050781 136.453125 L 254.554688 184.085938 L 254.625 184.082031 C 254.625 184.089844 254.628906 184.140625 254.636719 184.226562 L 254.730469 184.390625 L 254.652344 184.523438 C 254.902344 188.578125 256.648438 219.816406 253.421875 253.753906 C 251.394531 275.09375 247.824219 293.332031 242.8125 307.96875 C 239.566406 317.445312 235.695312 325.4375 231.234375 331.902344 C 281.308594 318.101562 321.09375 279.488281 336.535156 230.117188 C 333.582031 221.875 328.097656 213.132812 320.128906 203.996094 Z M 320.128906 203.996094 " fill-opacity="1" fill-rule="nonzero"/><g clip-path="url(#3d59e33031)"><path fill="#000000" d="M 108.691406 286.855469 C 123.503906 283.953125 140.71875 278.046875 159.867188 269.296875 C 183.160156 258.652344 203.710938 246.316406 213.726562 240.019531 L 158.722656 240.019531 L 158.691406 240.082031 C 158.683594 240.078125 158.636719 240.054688 158.558594 240.019531 L 158.371094 240.019531 L 158.296875 239.886719 C 154.660156 238.078125 126.730469 223.96875 98.953125 204.203125 C 81.492188 191.777344 67.480469 179.566406 57.308594 167.910156 C 50.726562 160.359375 45.738281 153.011719 42.371094 145.917969 C 39.1875 158.207031 37.492188 171.097656 37.492188 184.382812 C 37.492188 224.363281 52.828125 260.757812 77.933594 288.015625 C 86.539062 289.5625 96.828125 289.179688 108.695312 286.855469 Z M 108.691406 286.855469 " fill-opacity="1" fill-rule="nonzero"/></g><path fill="#000000" d="M 60.851562 164.789062 C 70.765625 176.164062 84.492188 188.121094 101.644531 200.328125 C 122.507812 215.179688 143.46875 226.808594 153.925781 232.332031 L 126.425781 184.699219 L 126.351562 184.707031 C 126.351562 184.695312 126.347656 184.644531 126.34375 184.558594 L 126.25 184.394531 L 126.324219 184.265625 C 126.074219 180.210938 124.328125 148.96875 127.554688 115.03125 C 129.585938 93.695312 133.15625 75.453125 138.167969 60.820312 C 141.414062 51.339844 145.28125 43.347656 149.742188 36.882812 C 99.667969 50.683594 59.882812 89.296875 44.441406 138.667969 C 47.398438 146.914062 52.882812 155.652344 60.851562 164.792969 Z M 60.851562 164.789062 " fill-opacity="1" fill-rule="nonzero"/></svg>